<svg xmlns:xlink="http://www.w3.org/1999/xlink" xmlns="http://www.w3.org/2000/svg" style="background-color:white;" class="recharts-surface" width="1556" height="676" viewBox="0 0 1556 676" version="1.1"><defs><clipPath id="recharts3-clip"><rect x="188" y="20" height="603.015625" width="1323"></rect></clipPath></defs><g class="recharts-layer recharts-cartesian-axis recharts-xAxis xAxis"><line class="recharts-cartesian-axis-line" width="1323" height="30" x="188" y="623.015625" stroke="#666666" fill="none" x1="188" y1="623.015625" x2="1511" y2="623.015625"></line><g class="recharts-cartesian-axis-ticks"><g class="recharts-layer recharts-cartesian-axis-tick"><line class="recharts-cartesian-axis-tick-line" width="1323" height="30" x="188" y="623.015625" stroke="#666666" fill="none" x1="188" y1="629.015625" x2="188" y2="623.015625"></line><text width="1323" height="30" x="188" y="631.015625" stroke="none" fill="#666666" class="recharts-text recharts-cartesian-axis-tick-value" text-anchor="middle"><tspan x="188" dy="0.71em" fill="#666666">0</tspan></text></g><g class="recharts-layer recharts-cartesian-axis-tick"><line class="recharts-cartesian-axis-tick-line" width="1323" height="30" x="188" y="623.015625" stroke="#666666" fill="none" x1="579.8822891379691" y1="629.015625" x2="579.8822891379691" y2="623.015625"></line><text width="1323" height="30" x="579.8822891379691" y="631.015625" stroke="none" fill="#666666" class="recharts-text recharts-cartesian-axis-tick-value" text-anchor="middle"><tspan x="579.8822891379691" dy="0.71em" fill="#666666">0.5</tspan></text></g><g class="recharts-layer recharts-cartesian-axis-tick"><line class="recharts-cartesian-axis-tick-line" width="1323" height="30" x="188" y="623.015625" stroke="#666666" fill="none" x1="971.7645782759381" y1="629.015625" x2="971.7645782759381" y2="623.015625"></line><text width="1323" height="30" x="971.7645782759381" y="631.015625" stroke="none" fill="#666666" class="recharts-text recharts-cartesian-axis-tick-value" text-anchor="middle"><tspan x="971.7645782759381" dy="0.71em" fill="#666666">1</tspan></text></g><g class="recharts-layer recharts-cartesian-axis-tick"><line class="recharts-cartesian-axis-tick-line" width="1323" height="30" x="188" y="623.015625" stroke="#666666" fill="none" x1="1363.646867413907" y1="629.015625" x2="1363.646867413907" y2="623.015625"></line><text width="1323" height="30" x="1363.646867413907" y="631.015625" stroke="none" fill="#666666" class="recharts-text recharts-cartesian-axis-tick-value" text-anchor="middle"><tspan x="1363.646867413907" dy="0.71em" fill="#666666">1.5</tspan></text></g></g></g><g class="recharts-layer recharts-cartesian-axis recharts-yAxis yAxis"><line class="recharts-cartesian-axis-line" width="60" height="603.015625" x="128" y="20" stroke="#666666" fill="none" x1="188" y1="20" x2="188" y2="623.015625"></line><g class="recharts-cartesian-axis-ticks"><g class="recharts-layer recharts-cartesian-axis-tick"><line class="recharts-cartesian-axis-tick-line" width="60" height="603.015625" x="128" y="20" stroke="#666666" fill="none" x1="182" y1="57.6884765625" x2="188" y2="57.6884765625"></line><text width="60" height="603.015625" x="180" y="57.6884765625" stroke="none" fill="#666666" class="recharts-text recharts-cartesian-axis-tick-value" text-anchor="end"><tspan x="180" dy="0.355em" fill="#666666">testAviator</tspan></text></g><g class="recharts-layer recharts-cartesian-axis-tick"><line class="recharts-cartesian-axis-tick-line" width="60" height="603.015625" x="128" y="20" stroke="#666666" fill="none" x1="182" y1="133.0654296875" x2="188" y2="133.0654296875"></line><text width="60" height="603.015625" x="180" y="133.0654296875" stroke="none" fill="#666666" class="recharts-text recharts-cartesian-axis-tick-value" text-anchor="end"><tspan x="180" dy="0.355em" fill="#666666">testJEXL</tspan></text></g><g class="recharts-layer recharts-cartesian-axis-tick"><line class="recharts-cartesian-axis-tick-line" width="60" height="603.015625" x="128" y="20" stroke="#666666" fill="none" x1="182" y1="208.4423828125" x2="188" y2="208.4423828125"></line><text width="60" height="603.015625" x="180" y="208.4423828125" stroke="none" fill="#666666" class="recharts-text recharts-cartesian-axis-tick-value" text-anchor="end"><tspan x="180" dy="0.355em" fill="#666666">testJUEL</tspan></text></g><g class="recharts-layer recharts-cartesian-axis-tick"><line class="recharts-cartesian-axis-tick-line" width="60" height="603.015625" x="128" y="20" stroke="#666666" fill="none" x1="182" y1="283.8193359375" x2="188" y2="283.8193359375"></line><text width="60" height="603.015625" x="180" y="283.8193359375" stroke="none" fill="#666666" class="recharts-text recharts-cartesian-axis-tick-value" text-anchor="end"><tspan x="180" dy="0.355em" fill="#666666">testJanino</tspan></text></g><g class="recharts-layer recharts-cartesian-axis-tick"><line class="recharts-cartesian-axis-tick-line" width="60" height="603.015625" x="128" y="20" stroke="#666666" fill="none" x1="182" y1="359.1962890625" x2="188" y2="359.1962890625"></line><text width="60" height="603.015625" x="180" y="359.1962890625" stroke="none" fill="#666666" class="recharts-text recharts-cartesian-axis-tick-value" text-anchor="end"><tspan x="180" dy="0.355em" fill="#666666">testMVEL</tspan></text></g><g class="recharts-layer recharts-cartesian-axis-tick"><line class="recharts-cartesian-axis-tick-line" width="60" height="603.015625" x="128" y="20" stroke="#666666" fill="none" x1="182" y1="434.5732421875" x2="188" y2="434.5732421875"></line><text width="60" height="603.015625" x="180" y="434.5732421875" stroke="none" fill="#666666" class="recharts-text recharts-cartesian-axis-tick-value" text-anchor="end"><tspan x="180" dy="0.355em" fill="#666666">testOGNL</tspan></text></g><g class="recharts-layer recharts-cartesian-axis-tick"><line class="recharts-cartesian-axis-tick-line" width="60" height="603.015625" x="128" y="20" stroke="#666666" fill="none" x1="182" y1="509.9501953125" x2="188" y2="509.9501953125"></line><text width="60" height="603.015625" x="180" y="509.9501953125" stroke="none" fill="#666666" class="recharts-text recharts-cartesian-axis-tick-value" text-anchor="end"><tspan x="180" dy="0.355em" fill="#666666">testQlExpress</tspan></text></g><g class="recharts-layer recharts-cartesian-axis-tick"><line class="recharts-cartesian-axis-tick-line" width="60" height="603.015625" x="128" y="20" stroke="#666666" fill="none" x1="182" y1="585.3271484375" x2="188" y2="585.3271484375"></line><text width="60" height="603.015625" x="180" y="585.3271484375" stroke="none" fill="#666666" class="recharts-text recharts-cartesian-axis-tick-value" text-anchor="end"><tspan x="180" dy="0.355em" fill="#666666">testSpEl</tspan></text></g></g></g><g class="recharts-cartesian-grid"><g class="recharts-cartesian-grid-horizontal"><line stroke-dasharray="3 3" stroke="#CCCCCC" fill="none" x="188" y="20" width="1323" height="603.015625" x1="188" y1="57.6884765625" x2="1511" y2="57.6884765625"></line><line stroke-dasharray="3 3" stroke="#CCCCCC" fill="none" x="188" y="20" width="1323" height="603.015625" x1="188" y1="133.0654296875" x2="1511" y2="133.0654296875"></line><line stroke-dasharray="3 3" stroke="#CCCCCC" fill="none" x="188" y="20" width="1323" height="603.015625" x1="188" y1="208.4423828125" x2="1511" y2="208.4423828125"></line><line stroke-dasharray="3 3" stroke="#CCCCCC" fill="none" x="188" y="20" width="1323" height="603.015625" x1="188" y1="283.8193359375" x2="1511" y2="283.8193359375"></line><line stroke-dasharray="3 3" stroke="#CCCCCC" fill="none" x="188" y="20" width="1323" height="603.015625" x1="188" y1="359.1962890625" x2="1511" y2="359.1962890625"></line><line stroke-dasharray="3 3" stroke="#CCCCCC" fill="none" x="188" y="20" width="1323" height="603.015625" x1="188" y1="434.5732421875" x2="1511" y2="434.5732421875"></line><line stroke-dasharray="3 3" stroke="#CCCCCC" fill="none" x="188" y="20" width="1323" height="603.015625" x1="188" y1="509.9501953125" x2="1511" y2="509.9501953125"></line><line stroke-dasharray="3 3" stroke="#CCCCCC" fill="none" x="188" y="20" width="1323" height="603.015625" x1="188" y1="585.3271484375" x2="1511" y2="585.3271484375"></line><line stroke-dasharray="3 3" stroke="#CCCCCC" fill="none" x="188" y="20" width="1323" height="603.015625" x1="188" y1="20" x2="1511" y2="20"></line><line stroke-dasharray="3 3" stroke="#CCCCCC" fill="none" x="188" y="20" width="1323" height="603.015625" x1="188" y1="623.015625" x2="1511" y2="623.015625"></line></g><g class="recharts-cartesian-grid-vertical"><line stroke-dasharray="3 3" stroke="#CCCCCC" fill="none" x="188" y="20" width="1323" height="603.015625" x1="188" y1="20" x2="188" y2="623.015625"></line><line stroke-dasharray="3 3" stroke="#CCCCCC" fill="none" x="188" y="20" width="1323" height="603.015625" x1="579.8822891379691" y1="20" x2="579.8822891379691" y2="623.015625"></line><line stroke-dasharray="3 3" stroke="#CCCCCC" fill="none" x="188" y="20" width="1323" height="603.015625" x1="971.7645782759381" y1="20" x2="971.7645782759381" y2="623.015625"></line><line stroke-dasharray="3 3" stroke="#CCCCCC" fill="none" x="188" y="20" width="1323" height="603.015625" x1="1363.646867413907" y1="20" x2="1363.646867413907" y2="623.015625"></line><line stroke-dasharray="3 3" stroke="#CCCCCC" fill="none" x="188" y="20" width="1323" height="603.015625" x1="1511" y1="20" x2="1511" y2="623.015625"></line></g></g><g class="recharts-layer recharts-bar"><defs><clipPath id="clipPath-recharts-bar-4"><rect x="188" y="20" width="1323" height="603.015625"></rect></clipPath></defs><g class="recharts-layer recharts-bar-rectangles" clip-path="url(#clipPath-recharts-bar-4)"><g class="recharts-layer"><g class="recharts-layer recharts-bar-rectangle"><path stroke="#22527B" fill="#22527B" width="35.31797903138613" height="28" x="188" y="27.5376953125" radius="0" class="recharts-rectangle" d="M 188,27.5376953125 h 35.31797903138613 v 28 h -35.31797903138613 Z"></path></g><g class="recharts-layer recharts-bar-rectangle"><path stroke="#22527B" fill="#22527B" width="841.489175430823" height="28" x="188" y="102.9146484375" radius="0" class="recharts-rectangle" d="M 188,102.9146484375 h 841.489175430823 v 28 h -841.489175430823 Z"></path></g><g class="recharts-layer recharts-bar-rectangle"><path stroke="#22527B" fill="#22527B" width="838.0336035361531" height="28" x="188" y="178.2916015625" radius="0" class="recharts-rectangle" d="M 188,178.2916015625 h 838.0336035361531 v 28 h -838.0336035361531 Z"></path></g><g class="recharts-layer recharts-bar-rectangle"><path stroke="#22527B" fill="#22527B" width="20.337043851370566" height="28" x="188" y="253.6685546875" radius="0" class="recharts-rectangle" d="M 188,253.6685546875 h 20.337043851370566 v 28 h -20.337043851370566 Z"></path></g><g class="recharts-layer recharts-bar-rectangle"><path stroke="#22527B" fill="#22527B" width="12.139068209166709" height="28" x="188" y="329.0455078125" radius="0" class="recharts-rectangle" d="M 188,329.0455078125 h 12.139068209166709 v 28 h -12.139068209166709 Z"></path></g><g class="recharts-layer recharts-bar-rectangle"><path stroke="#22527B" fill="#22527B" width="47.47398579615759" height="28" x="188" y="404.4224609375" radius="0" class="recharts-rectangle" d="M 188,404.4224609375 h 47.47398579615759 v 28 h -47.47398579615759 Z"></path></g><g class="recharts-layer recharts-bar-rectangle"><path stroke="#22527B" fill="#22527B" width="988.3707933865257" height="28" x="188" y="479.7994140625" radius="0" class="recharts-rectangle" d="M 188,479.7994140625 h 988.3707933865257 v 28 h -988.3707933865257 Z"></path></g><g class="recharts-layer recharts-bar-rectangle"><path stroke="#22527B" fill="#22527B" width="18.845489560726264" height="28" x="188" y="555.1763671875" radius="0" class="recharts-rectangle" d="M 188,555.1763671875 h 18.845489560726264 v 28 h -18.845489560726264 Z"></path></g></g></g><g class="recharts-layer recharts-errorBars"><g class="recharts-layer recharts-errorBar" stroke-width="2px" stroke="#143049"><line x1="232.42873422299908" y1="45.5376953125" x2="232.42873422299908" y2="37.5376953125" stroke="#143049" stroke-width="2px"></line><line x1="216.93138825877844" y1="41.5376953125" x2="232.42873422299908" y2="41.5376953125" stroke="#143049" stroke-width="2px"></line><line x1="216.93138825877844" y1="45.5376953125" x2="216.93138825877844" y2="37.5376953125" stroke="#143049" stroke-width="2px"></line></g><g class="recharts-layer recharts-errorBar" stroke-width="2px" stroke="#143049"><line x1="1273.544265839779" y1="120.9146484375" x2="1273.544265839779" y2="112.9146484375" stroke="#143049" stroke-width="2px"></line><line x1="879.9544650491812" y1="116.9146484375" x2="1273.544265839779" y2="116.9146484375" stroke="#143049" stroke-width="2px"></line><line x1="879.9544650491812" y1="120.9146484375" x2="879.9544650491812" y2="112.9146484375" stroke="#143049" stroke-width="2px"></line></g><g class="recharts-layer recharts-errorBar" stroke-width="2px" stroke="#143049"><line x1="1135.489737471371" y1="196.2916015625" x2="1135.489737471371" y2="188.2916015625" stroke="#143049" stroke-width="2px"></line><line x1="935.4303431823787" y1="192.2916015625" x2="1135.489737471371" y2="192.2916015625" stroke="#143049" stroke-width="2px"></line><line x1="935.4303431823787" y1="196.2916015625" x2="935.4303431823787" y2="188.2916015625" stroke="#143049" stroke-width="2px"></line></g><g class="recharts-layer recharts-errorBar" stroke-width="2px" stroke="#143049"><line x1="217.42247935297235" y1="271.6685546875" x2="217.42247935297235" y2="263.6685546875" stroke="#143049" stroke-width="2px"></line><line x1="205.27701911029789" y1="267.6685546875" x2="217.42247935297235" y2="267.6685546875" stroke="#143049" stroke-width="2px"></line><line x1="205.27701911029789" y1="271.6685546875" x2="205.27701911029789" y2="263.6685546875" stroke="#143049" stroke-width="2px"></line></g><g class="recharts-layer recharts-errorBar" stroke-width="2px" stroke="#143049"><line x1="201.57849347756488" y1="347.0455078125" x2="201.57849347756488" y2="339.0455078125" stroke="#143049" stroke-width="2px"></line><line x1="199.64904382075014" y1="343.0455078125" x2="201.57849347756488" y2="343.0455078125" stroke="#143049" stroke-width="2px"></line><line x1="199.64904382075014" y1="347.0455078125" x2="199.64904382075014" y2="339.0455078125" stroke="#143049" stroke-width="2px"></line></g><g class="recharts-layer recharts-errorBar" stroke-width="2px" stroke="#143049"><line x1="244.62481579964555" y1="422.4224609375" x2="244.62481579964555" y2="414.4224609375" stroke="#143049" stroke-width="2px"></line><line x1="229.89500669170607" y1="418.4224609375" x2="244.62481579964555" y2="418.4224609375" stroke="#143049" stroke-width="2px"></line><line x1="229.89500669170607" y1="422.4224609375" x2="229.89500669170607" y2="414.4224609375" stroke="#143049" stroke-width="2px"></line></g><g class="recharts-layer recharts-errorBar" stroke-width="2px" stroke="#143049"><line x1="1511" y1="497.7994140625" x2="1511" y2="489.7994140625" stroke="#143049" stroke-width="2px"></line><line x1="1024.1193999039108" y1="493.7994140625" x2="1511" y2="493.7994140625" stroke="#143049" stroke-width="2px"></line><line x1="1024.1193999039108" y1="497.7994140625" x2="1024.1193999039108" y2="489.7994140625" stroke="#143049" stroke-width="2px"></line></g><g class="recharts-layer recharts-errorBar" stroke-width="2px" stroke="#143049"><line x1="219.85509742483896" y1="573.1763671875" x2="219.85509742483896" y2="565.1763671875" stroke="#143049" stroke-width="2px"></line><line x1="201.5151678858432" y1="569.1763671875" x2="219.85509742483896" y2="569.1763671875" stroke="#143049" stroke-width="2px"></line><line x1="201.5151678858432" y1="573.1763671875" x2="201.5151678858432" y2="565.1763671875" stroke="#143049" stroke-width="2px"></line></g></g><g class="recharts-layer recharts-label-list"><g><text stroke="#337AB7" font-size="11" fill="#FFFFFF" x="230.31797903138613" y="34.5376953125" width="35.31797903138613" height="28" class="recharts-bar-label" fill-opacity="0.8">0.04506197397830322 us/op</text></g><g><text stroke="#337AB7" font-size="11" fill="#FFFFFF" x="1036.489175430823" y="109.9146484375" width="841.489175430823" height="28" class="recharts-bar-label" fill-opacity="0.8">1.0736504286553274 us/op</text></g><g><text stroke="#337AB7" font-size="11" fill="#FFFFFF" x="1033.0336035361531" y="185.2916015625" width="838.0336035361531" height="28" class="recharts-bar-label" fill-opacity="0.8">1.0692414875134975 us/op</text></g><g><text stroke="#337AB7" font-size="11" fill="#FFFFFF" x="215.33704385137057" y="260.6685546875" width="20.337043851370566" height="28" class="recharts-bar-label" fill-opacity="0.8">0.02594789866123621 us/op</text></g><g><text stroke="#337AB7" font-size="11" fill="#FFFFFF" x="207.1390682091667" y="336.0455078125" width="12.139068209166709" height="28" class="recharts-bar-label" fill-opacity="0.8">0.015488156195919539 us/op</text></g><g><text stroke="#337AB7" font-size="11" fill="#FFFFFF" x="242.4739857961576" y="411.4224609375" width="47.47398579615759" height="28" class="recharts-bar-label" fill-opacity="0.8">0.06057174196438808 us/op</text></g><g><text stroke="#337AB7" font-size="11" fill="#FFFFFF" x="1183.3707933865257" y="486.7994140625" width="988.3707933865257" height="28" class="recharts-bar-label" fill-opacity="0.8">1.2610557057333003 us/op</text></g><g><text stroke="#337AB7" font-size="11" fill="#FFFFFF" x="213.84548956072626" y="562.1763671875" width="18.845489560726264" height="28" class="recharts-bar-label" fill-opacity="0.8">0.024044834486117033 us/op</text></g></g></g><g class="recharts-layer recharts-bar"><defs><clipPath id="clipPath-recharts-bar-5"><rect x="188" y="20" width="1323" height="603.015625"></rect></clipPath></defs><g class="recharts-layer recharts-bar-rectangles" clip-path="url(#clipPath-recharts-bar-5)"><g class="recharts-layer"><g class="recharts-layer recharts-bar-rectangle"><path stroke="#337AB7" fill="#337AB7" width="35.04659895878851" height="28" x="188" y="59.5376953125" radius="0" class="recharts-rectangle" d="M 188,59.5376953125 h 35.04659895878851 v 28 h -35.04659895878851 Z"></path></g><g class="recharts-layer recharts-bar-rectangle"><path stroke="#337AB7" fill="#337AB7" width="559.1830417891788" height="28" x="188" y="134.9146484375" radius="0" class="recharts-rectangle" d="M 188,134.9146484375 h 559.1830417891788 v 28 h -559.1830417891788 Z"></path></g><g class="recharts-layer recharts-bar-rectangle"><path stroke="#337AB7" fill="#337AB7" width="852.0410447842089" height="28" x="188" y="210.2916015625" radius="0" class="recharts-rectangle" d="M 188,210.2916015625 h 852.0410447842089 v 28 h -852.0410447842089 Z"></path></g><g class="recharts-layer recharts-bar-rectangle"><path stroke="#337AB7" fill="#337AB7" width="14.947339255244515" height="28" x="188" y="285.6685546875" radius="0" class="recharts-rectangle" d="M 188,285.6685546875 h 14.947339255244515 v 28 h -14.947339255244515 Z"></path></g><g class="recharts-layer recharts-bar-rectangle"><path stroke="#337AB7" fill="#337AB7" width="93.04080467391134" height="28" x="188" y="361.0455078125" radius="0" class="recharts-rectangle" d="M 188,361.0455078125 h 93.04080467391134 v 28 h -93.04080467391134 Z"></path></g><g class="recharts-layer recharts-bar-rectangle"><path stroke="#337AB7" fill="#337AB7" width="54.860716466318024" height="28" x="188" y="436.4224609375" radius="0" class="recharts-rectangle" d="M 188,436.4224609375 h 54.860716466318024 v 28 h -54.860716466318024 Z"></path></g><g class="recharts-layer recharts-bar-rectangle"><path stroke="#337AB7" fill="#337AB7" width="694.6172443592434" height="28" x="188" y="511.7994140625" radius="0" class="recharts-rectangle" d="M 188,511.7994140625 h 694.6172443592434 v 28 h -694.6172443592434 Z"></path></g><g class="recharts-layer recharts-bar-rectangle"><path stroke="#337AB7" fill="#337AB7" width="501.37165643063247" height="28" x="188" y="587.1763671875" radius="0" class="recharts-rectangle" d="M 188,587.1763671875 h 501.37165643063247 v 28 h -501.37165643063247 Z"></path></g></g></g><g class="recharts-layer recharts-errorBars"><g class="recharts-layer recharts-errorBar" stroke-width="2px" stroke="#143049"><line x1="234.10797527107218" y1="77.5376953125" x2="234.10797527107218" y2="69.5376953125" stroke="#143049" stroke-width="2px"></line><line x1="219.414598448396" y1="73.5376953125" x2="234.10797527107218" y2="73.5376953125" stroke="#143049" stroke-width="2px"></line><line x1="219.414598448396" y1="77.5376953125" x2="219.414598448396" y2="69.5376953125" stroke="#143049" stroke-width="2px"></line></g><g class="recharts-layer recharts-errorBar" stroke-width="2px" stroke="#143049"><line x1="845.3164929699366" y1="152.9146484375" x2="845.3164929699366" y2="144.9146484375" stroke="#143049" stroke-width="2px"></line><line x1="714.6026835300246" y1="148.9146484375" x2="845.3164929699366" y2="148.9146484375" stroke="#143049" stroke-width="2px"></line><line x1="714.6026835300246" y1="152.9146484375" x2="714.6026835300246" y2="144.9146484375" stroke="#143049" stroke-width="2px"></line></g><g class="recharts-layer recharts-errorBar" stroke-width="2px" stroke="#143049"><line x1="1286.0733127553094" y1="228.2916015625" x2="1286.0733127553094" y2="220.2916015625" stroke="#143049" stroke-width="2px"></line><line x1="869.1719997349007" y1="224.2916015625" x2="1286.0733127553094" y2="224.2916015625" stroke="#143049" stroke-width="2px"></line><line x1="869.1719997349007" y1="228.2916015625" x2="869.1719997349007" y2="220.2916015625" stroke="#143049" stroke-width="2px"></line></g><g class="recharts-layer recharts-errorBar" stroke-width="2px" stroke="#143049"><line x1="213.74284426223474" y1="303.6685546875" x2="213.74284426223474" y2="295.6685546875" stroke="#143049" stroke-width="2px"></line><line x1="200.75987982896262" y1="299.6685546875" x2="213.74284426223474" y2="299.6685546875" stroke="#143049" stroke-width="2px"></line><line x1="200.75987982896262" y1="303.6685546875" x2="200.75987982896262" y2="295.6685546875" stroke="#143049" stroke-width="2px"></line></g><g class="recharts-layer recharts-errorBar" stroke-width="2px" stroke="#143049"><line x1="297.5173088745326" y1="379.0455078125" x2="297.5173088745326" y2="371.0455078125" stroke="#143049" stroke-width="2px"></line><line x1="273.50085501884513" y1="375.0455078125" x2="297.5173088745326" y2="375.0455078125" stroke="#143049" stroke-width="2px"></line><line x1="273.50085501884513" y1="379.0455078125" x2="273.50085501884513" y2="371.0455078125" stroke="#143049" stroke-width="2px"></line></g><g class="recharts-layer recharts-errorBar" stroke-width="2px" stroke="#143049"><line x1="259.41060976611334" y1="454.4224609375" x2="259.41060976611334" y2="446.4224609375" stroke="#143049" stroke-width="2px"></line><line x1="231.27277737012844" y1="450.4224609375" x2="259.41060976611334" y2="450.4224609375" stroke="#143049" stroke-width="2px"></line><line x1="231.27277737012844" y1="454.4224609375" x2="231.27277737012844" y2="446.4224609375" stroke="#143049" stroke-width="2px"></line></g><g class="recharts-layer recharts-errorBar" stroke-width="2px" stroke="#143049"><line x1="1218.5735649545245" y1="529.7994140625" x2="1218.5735649545245" y2="521.7994140625" stroke="#143049" stroke-width="2px"></line><line x1="740.1441421089362" y1="525.7994140625" x2="1218.5735649545245" y2="525.7994140625" stroke="#143049" stroke-width="2px"></line><line x1="740.1441421089362" y1="529.7994140625" x2="740.1441421089362" y2="521.7994140625" stroke="#143049" stroke-width="2px"></line></g><g class="recharts-layer recharts-errorBar" stroke-width="2px" stroke="#143049"><line x1="731.9190203559563" y1="605.1763671875" x2="731.9190203559563" y2="597.1763671875" stroke="#143049" stroke-width="2px"></line><line x1="649.7705518658381" y1="601.1763671875" x2="731.9190203559563" y2="601.1763671875" stroke="#143049" stroke-width="2px"></line><line x1="649.7705518658381" y1="605.1763671875" x2="649.7705518658381" y2="597.1763671875" stroke="#143049" stroke-width="2px"></line></g></g><g class="recharts-layer recharts-label-list"><g><text stroke="#337AB7" font-size="11" fill="#FFFFFF" x="230.0465989587885" y="66.5376953125" width="35.04659895878851" height="28" class="recharts-bar-label" fill-opacity="0.8">0.04471572195298896 us/op</text></g><g><text stroke="#337AB7" font-size="11" fill="#FFFFFF" x="754.1830417891788" y="141.9146484375" width="559.1830417891788" height="28" class="recharts-bar-label" fill-opacity="0.8">0.7134579148999364 us/op</text></g><g><text stroke="#337AB7" font-size="11" fill="#FFFFFF" x="1047.041044784209" y="217.2916015625" width="852.0410447842089" height="28" class="recharts-bar-label" fill-opacity="0.8">1.0871134884131401 us/op</text></g><g><text stroke="#337AB7" font-size="11" fill="#FFFFFF" x="209.94733925524451" y="292.6685546875" width="14.947339255244515" height="28" class="recharts-bar-label" fill-opacity="0.8">0.019071210500638418 us/op</text></g><g><text stroke="#337AB7" font-size="11" fill="#FFFFFF" x="288.04080467391134" y="368.0455078125" width="93.04080467391134" height="28" class="recharts-bar-label" fill-opacity="0.8">0.11871014237282189 us/op</text></g><g><text stroke="#337AB7" font-size="11" fill="#FFFFFF" x="249.86071646631802" y="443.4224609375" width="54.860716466318024" height="28" class="recharts-bar-label" fill-opacity="0.8">0.06999642237851088 us/op</text></g><g><text stroke="#337AB7" font-size="11" fill="#FFFFFF" x="889.6172443592434" y="518.7994140625" width="694.6172443592434" height="28" class="recharts-bar-label" fill-opacity="0.8">0.886257511008224 us/op</text></g><g><text stroke="#337AB7" font-size="11" fill="#FFFFFF" x="696.3716564306325" y="594.1763671875" width="501.37165643063247" height="28" class="recharts-bar-label" fill-opacity="0.8">0.6396967537541812 us/op</text></g></g></g></svg>
