<svg xmlns:xlink="http://www.w3.org/1999/xlink" xmlns="http://www.w3.org/2000/svg" style="background-color:white;" class="recharts-surface" width="1556" height="964" viewBox="0 0 1556 964" version="1.1"><defs><clipPath id="recharts9-clip"><rect x="188" y="20" height="891.015625" width="1323"></rect></clipPath></defs><g class="recharts-layer recharts-cartesian-axis recharts-xAxis xAxis"><line class="recharts-cartesian-axis-line" width="1323" height="30" x="188" y="911.015625" stroke="#666666" fill="none" x1="188" y1="911.015625" x2="1511" y2="911.015625"></line><g class="recharts-cartesian-axis-ticks"><g class="recharts-layer recharts-cartesian-axis-tick"><line class="recharts-cartesian-axis-tick-line" width="1323" height="30" x="188" y="911.015625" stroke="#666666" fill="none" x1="188" y1="917.015625" x2="188" y2="911.015625"></line><text width="1323" height="30" x="188" y="919.015625" stroke="none" fill="#666666" class="recharts-text recharts-cartesian-axis-tick-value" text-anchor="middle"><tspan x="188" dy="0.71em" fill="#666666">0</tspan></text></g><g class="recharts-layer recharts-cartesian-axis-tick"><line class="recharts-cartesian-axis-tick-line" width="1323" height="30" x="188" y="911.015625" stroke="#666666" fill="none" x1="536.1578947368421" y1="917.015625" x2="536.1578947368421" y2="911.015625"></line><text width="1323" height="30" x="536.1578947368421" y="919.015625" stroke="none" fill="#666666" class="recharts-text recharts-cartesian-axis-tick-value" text-anchor="middle"><tspan x="536.1578947368421" dy="0.71em" fill="#666666">10</tspan></text></g><g class="recharts-layer recharts-cartesian-axis-tick"><line class="recharts-cartesian-axis-tick-line" width="1323" height="30" x="188" y="911.015625" stroke="#666666" fill="none" x1="884.3157894736842" y1="917.015625" x2="884.3157894736842" y2="911.015625"></line><text width="1323" height="30" x="884.3157894736842" y="919.015625" stroke="none" fill="#666666" class="recharts-text recharts-cartesian-axis-tick-value" text-anchor="middle"><tspan x="884.3157894736842" dy="0.71em" fill="#666666">20</tspan></text></g><g class="recharts-layer recharts-cartesian-axis-tick"><line class="recharts-cartesian-axis-tick-line" width="1323" height="30" x="188" y="911.015625" stroke="#666666" fill="none" x1="1232.4736842105262" y1="917.015625" x2="1232.4736842105262" y2="911.015625"></line><text width="1323" height="30" x="1232.4736842105262" y="919.015625" stroke="none" fill="#666666" class="recharts-text recharts-cartesian-axis-tick-value" text-anchor="middle"><tspan x="1232.4736842105262" dy="0.71em" fill="#666666">30</tspan></text></g></g></g><g class="recharts-layer recharts-cartesian-axis recharts-yAxis yAxis"><line class="recharts-cartesian-axis-line" width="60" height="891.015625" x="128" y="20" stroke="#666666" fill="none" x1="188" y1="20" x2="188" y2="911.015625"></line><g class="recharts-cartesian-axis-ticks"><g class="recharts-layer recharts-cartesian-axis-tick"><line class="recharts-cartesian-axis-tick-line" width="60" height="891.015625" x="128" y="20" stroke="#666666" fill="none" x1="182" y1="75.6884765625" x2="188" y2="75.6884765625"></line><text width="60" height="891.015625" x="180" y="75.6884765625" stroke="none" fill="#666666" class="recharts-text recharts-cartesian-axis-tick-value" text-anchor="end"><tspan x="180" dy="0.355em" fill="#666666">testAviator</tspan></text></g><g class="recharts-layer recharts-cartesian-axis-tick"><line class="recharts-cartesian-axis-tick-line" width="60" height="891.015625" x="128" y="20" stroke="#666666" fill="none" x1="182" y1="187.0654296875" x2="188" y2="187.0654296875"></line><text width="60" height="891.015625" x="180" y="187.0654296875" stroke="none" fill="#666666" class="recharts-text recharts-cartesian-axis-tick-value" text-anchor="end"><tspan x="180" dy="0.355em" fill="#666666">testJEXL</tspan></text></g><g class="recharts-layer recharts-cartesian-axis-tick"><line class="recharts-cartesian-axis-tick-line" width="60" height="891.015625" x="128" y="20" stroke="#666666" fill="none" x1="182" y1="298.4423828125" x2="188" y2="298.4423828125"></line><text width="60" height="891.015625" x="180" y="298.4423828125" stroke="none" fill="#666666" class="recharts-text recharts-cartesian-axis-tick-value" text-anchor="end"><tspan x="180" dy="0.355em" fill="#666666">testJUEL</tspan></text></g><g class="recharts-layer recharts-cartesian-axis-tick"><line class="recharts-cartesian-axis-tick-line" width="60" height="891.015625" x="128" y="20" stroke="#666666" fill="none" x1="182" y1="409.8193359375" x2="188" y2="409.8193359375"></line><text width="60" height="891.015625" x="180" y="409.8193359375" stroke="none" fill="#666666" class="recharts-text recharts-cartesian-axis-tick-value" text-anchor="end"><tspan x="180" dy="0.355em" fill="#666666">testJanino</tspan></text></g><g class="recharts-layer recharts-cartesian-axis-tick"><line class="recharts-cartesian-axis-tick-line" width="60" height="891.015625" x="128" y="20" stroke="#666666" fill="none" x1="182" y1="521.1962890625" x2="188" y2="521.1962890625"></line><text width="60" height="891.015625" x="180" y="521.1962890625" stroke="none" fill="#666666" class="recharts-text recharts-cartesian-axis-tick-value" text-anchor="end"><tspan x="180" dy="0.355em" fill="#666666">testMVEL</tspan></text></g><g class="recharts-layer recharts-cartesian-axis-tick"><line class="recharts-cartesian-axis-tick-line" width="60" height="891.015625" x="128" y="20" stroke="#666666" fill="none" x1="182" y1="632.5732421875" x2="188" y2="632.5732421875"></line><text width="60" height="891.015625" x="180" y="632.5732421875" stroke="none" fill="#666666" class="recharts-text recharts-cartesian-axis-tick-value" text-anchor="end"><tspan x="180" dy="0.355em" fill="#666666">testOGNL</tspan></text></g><g class="recharts-layer recharts-cartesian-axis-tick"><line class="recharts-cartesian-axis-tick-line" width="60" height="891.015625" x="128" y="20" stroke="#666666" fill="none" x1="182" y1="743.9501953125" x2="188" y2="743.9501953125"></line><text width="60" height="891.015625" x="180" y="743.9501953125" stroke="none" fill="#666666" class="recharts-text recharts-cartesian-axis-tick-value" text-anchor="end"><tspan x="180" dy="0.355em" fill="#666666">testQlExpress</tspan></text></g><g class="recharts-layer recharts-cartesian-axis-tick"><line class="recharts-cartesian-axis-tick-line" width="60" height="891.015625" x="128" y="20" stroke="#666666" fill="none" x1="182" y1="855.3271484375" x2="188" y2="855.3271484375"></line><text width="60" height="891.015625" x="180" y="855.3271484375" stroke="none" fill="#666666" class="recharts-text recharts-cartesian-axis-tick-value" text-anchor="end"><tspan x="180" dy="0.355em" fill="#666666">testSpEl</tspan></text></g></g></g><g class="recharts-cartesian-grid"><g class="recharts-cartesian-grid-horizontal"><line stroke-dasharray="3 3" stroke="#CCCCCC" fill="none" x="188" y="20" width="1323" height="891.015625" x1="188" y1="75.6884765625" x2="1511" y2="75.6884765625"></line><line stroke-dasharray="3 3" stroke="#CCCCCC" fill="none" x="188" y="20" width="1323" height="891.015625" x1="188" y1="187.0654296875" x2="1511" y2="187.0654296875"></line><line stroke-dasharray="3 3" stroke="#CCCCCC" fill="none" x="188" y="20" width="1323" height="891.015625" x1="188" y1="298.4423828125" x2="1511" y2="298.4423828125"></line><line stroke-dasharray="3 3" stroke="#CCCCCC" fill="none" x="188" y="20" width="1323" height="891.015625" x1="188" y1="409.8193359375" x2="1511" y2="409.8193359375"></line><line stroke-dasharray="3 3" stroke="#CCCCCC" fill="none" x="188" y="20" width="1323" height="891.015625" x1="188" y1="521.1962890625" x2="1511" y2="521.1962890625"></line><line stroke-dasharray="3 3" stroke="#CCCCCC" fill="none" x="188" y="20" width="1323" height="891.015625" x1="188" y1="632.5732421875" x2="1511" y2="632.5732421875"></line><line stroke-dasharray="3 3" stroke="#CCCCCC" fill="none" x="188" y="20" width="1323" height="891.015625" x1="188" y1="743.9501953125" x2="1511" y2="743.9501953125"></line><line stroke-dasharray="3 3" stroke="#CCCCCC" fill="none" x="188" y="20" width="1323" height="891.015625" x1="188" y1="855.3271484375" x2="1511" y2="855.3271484375"></line><line stroke-dasharray="3 3" stroke="#CCCCCC" fill="none" x="188" y="20" width="1323" height="891.015625" x1="188" y1="20" x2="1511" y2="20"></line><line stroke-dasharray="3 3" stroke="#CCCCCC" fill="none" x="188" y="20" width="1323" height="891.015625" x1="188" y1="911.015625" x2="1511" y2="911.015625"></line></g><g class="recharts-cartesian-grid-vertical"><line stroke-dasharray="3 3" stroke="#CCCCCC" fill="none" x="188" y="20" width="1323" height="891.015625" x1="188" y1="20" x2="188" y2="911.015625"></line><line stroke-dasharray="3 3" stroke="#CCCCCC" fill="none" x="188" y="20" width="1323" height="891.015625" x1="536.1578947368421" y1="20" x2="536.1578947368421" y2="911.015625"></line><line stroke-dasharray="3 3" stroke="#CCCCCC" fill="none" x="188" y="20" width="1323" height="891.015625" x1="884.3157894736842" y1="20" x2="884.3157894736842" y2="911.015625"></line><line stroke-dasharray="3 3" stroke="#CCCCCC" fill="none" x="188" y="20" width="1323" height="891.015625" x1="1232.4736842105262" y1="20" x2="1232.4736842105262" y2="911.015625"></line><line stroke-dasharray="3 3" stroke="#CCCCCC" fill="none" x="188" y="20" width="1323" height="891.015625" x1="1511" y1="20" x2="1511" y2="911.015625"></line></g></g><g class="recharts-layer recharts-bar"><defs><clipPath id="clipPath-recharts-bar-10"><rect x="188" y="20" width="1323" height="891.015625"></rect></clipPath></defs><g class="recharts-layer recharts-bar-rectangles" clip-path="url(#clipPath-recharts-bar-10)"><g class="recharts-layer"><g class="recharts-layer recharts-bar-rectangle"><path stroke="#22527B" fill="#22527B" width="26.209295523162098" height="27" x="188" y="31.1376953125" radius="0" class="recharts-rectangle" d="M 188,31.1376953125 h 26.209295523162098 v 27 h -26.209295523162098 Z"></path></g><g class="recharts-layer recharts-bar-rectangle"><path stroke="#22527B" fill="#22527B" width="17.4776852931341" height="27" x="188" y="142.5146484375" radius="0" class="recharts-rectangle" d="M 188,142.5146484375 h 17.4776852931341 v 27 h -17.4776852931341 Z"></path></g><g class="recharts-layer recharts-bar-rectangle"><path stroke="#22527B" fill="#22527B" width="28.43150465041316" height="27" x="188" y="253.8916015625" radius="0" class="recharts-rectangle" d="M 188,253.8916015625 h 28.43150465041316 v 27 h -28.43150465041316 Z"></path></g><g class="recharts-layer recharts-bar-rectangle"><path stroke="#22527B" fill="#22527B" width="18.62959777999677" height="27" x="188" y="365.2685546875" radius="0" class="recharts-rectangle" d="M 188,365.2685546875 h 18.62959777999677 v 27 h -18.62959777999677 Z"></path></g><g class="recharts-layer recharts-bar-rectangle"><path stroke="#22527B" fill="#22527B" width="1.3825318668934017" height="27" x="188" y="476.6455078125" radius="0" class="recharts-rectangle" d="M 188,476.6455078125 h 1.3825318668934017 v 27 h -1.3825318668934017 Z"></path></g><g class="recharts-layer recharts-bar-rectangle"><path stroke="#22527B" fill="#22527B" width="69.63157894736844" height="27" x="188" y="588.0224609375" radius="0" class="recharts-rectangle" d="M 188,588.0224609375 h 69.63157894736844 v 27 h -69.63157894736844 Z"></path></g><g class="recharts-layer recharts-bar-rectangle"><path stroke="#22527B" fill="#22527B" width="18.39289494409053" height="27" x="188" y="699.3994140625" radius="0" class="recharts-rectangle" d="M 188,699.3994140625 h 18.39289494409053 v 27 h -18.39289494409053 Z"></path></g><g class="recharts-layer recharts-bar-rectangle"><path stroke="#22527B" fill="#22527B" width="0.8823845671554977" height="27" x="188" y="810.7763671875" radius="0" class="recharts-rectangle" d="M 188,810.7763671875 h 0.8823845671554977 v 27 h -0.8823845671554977 Z"></path></g></g></g><g class="recharts-layer recharts-errorBars"><g class="recharts-layer recharts-errorBar" stroke-width="2px" stroke="#143049"><line x1="219.33878154052024" y1="48.6376953125" x2="219.33878154052024" y2="40.6376953125" stroke="#143049" stroke-width="2px"></line><line x1="212.3629801880329" y1="44.6376953125" x2="219.33878154052024" y2="44.6376953125" stroke="#143049" stroke-width="2px"></line><line x1="212.3629801880329" y1="48.6376953125" x2="212.3629801880329" y2="40.6376953125" stroke="#143049" stroke-width="2px"></line></g><g class="recharts-layer recharts-errorBar" stroke-width="2px" stroke="#143049"><line x1="209.8348912553692" y1="160.0146484375" x2="209.8348912553692" y2="152.0146484375" stroke="#143049" stroke-width="2px"></line><line x1="201.9185844662296" y1="156.0146484375" x2="209.8348912553692" y2="156.0146484375" stroke="#143049" stroke-width="2px"></line><line x1="201.9185844662296" y1="160.0146484375" x2="201.9185844662296" y2="152.0146484375" stroke="#143049" stroke-width="2px"></line></g><g class="recharts-layer recharts-errorBar" stroke-width="2px" stroke="#143049"><line x1="221.62577322221108" y1="271.3916015625" x2="221.62577322221108" y2="263.3916015625" stroke="#143049" stroke-width="2px"></line><line x1="212.87762302564394" y1="267.3916015625" x2="221.62577322221108" y2="267.3916015625" stroke="#143049" stroke-width="2px"></line><line x1="212.87762302564394" y1="271.3916015625" x2="212.87762302564394" y2="263.3916015625" stroke="#143049" stroke-width="2px"></line></g><g class="recharts-layer recharts-errorBar" stroke-width="2px" stroke="#143049"><line x1="219.25799619141983" y1="382.7685546875" x2="219.25799619141983" y2="374.7685546875" stroke="#143049" stroke-width="2px"></line><line x1="195.10234277247721" y1="378.7685546875" x2="219.25799619141983" y2="378.7685546875" stroke="#143049" stroke-width="2px"></line><line x1="195.10234277247721" y1="382.7685546875" x2="195.10234277247721" y2="374.7685546875" stroke="#143049" stroke-width="2px"></line></g><g class="recharts-layer recharts-errorBar" stroke-width="2px" stroke="#143049"><line x1="189.59810331345437" y1="494.1455078125" x2="189.59810331345437" y2="486.1455078125" stroke="#143049" stroke-width="2px"></line><line x1="189.06999662006922" y1="490.1455078125" x2="189.59810331345437" y2="490.1455078125" stroke="#143049" stroke-width="2px"></line><line x1="189.06999662006922" y1="494.1455078125" x2="189.06999662006922" y2="486.1455078125" stroke="#143049" stroke-width="2px"></line></g><g class="recharts-layer recharts-errorBar" stroke-width="2px" stroke="#143049"><line x1="327.2631578947369" y1="605.5224609375" x2="327.2631578947369" y2="597.5224609375" stroke="#143049" stroke-width="2px"></line><line x1="222.81578947368422" y1="601.5224609375" x2="327.2631578947369" y2="601.5224609375" stroke="#143049" stroke-width="2px"></line><line x1="222.81578947368422" y1="605.5224609375" x2="222.81578947368422" y2="597.5224609375" stroke="#143049" stroke-width="2px"></line></g><g class="recharts-layer recharts-errorBar" stroke-width="2px" stroke="#143049"><line x1="209.2021858411389" y1="716.8994140625" x2="209.2021858411389" y2="708.8994140625" stroke="#143049" stroke-width="2px"></line><line x1="204.27115842368013" y1="712.8994140625" x2="209.2021858411389" y2="712.8994140625" stroke="#143049" stroke-width="2px"></line><line x1="204.27115842368013" y1="716.8994140625" x2="204.27115842368013" y2="708.8994140625" stroke="#143049" stroke-width="2px"></line></g><g class="recharts-layer recharts-errorBar" stroke-width="2px" stroke="#143049"><line x1="189.41564840826965" y1="828.2763671875" x2="189.41564840826965" y2="820.2763671875" stroke="#143049" stroke-width="2px"></line><line x1="188.71046096991034" y1="824.2763671875" x2="189.41564840826965" y2="824.2763671875" stroke="#143049" stroke-width="2px"></line><line x1="188.71046096991034" y1="828.2763671875" x2="188.71046096991034" y2="820.2763671875" stroke="#143049" stroke-width="2px"></line></g></g><g class="recharts-layer recharts-label-list"><g><text stroke="#337AB7" font-size="11" fill="#FFFFFF" x="221.2092955231621" y="37.6376953125" width="26.209295523162098" height="27" class="recharts-bar-label" fill-opacity="0.8">0.7527991155556761 us/op</text></g><g><text stroke="#337AB7" font-size="11" fill="#FFFFFF" x="212.4776852931341" y="149.0146484375" width="17.4776852931341" height="27" class="recharts-bar-label" fill-opacity="0.8">0.5020045662427034 us/op</text></g><g><text stroke="#337AB7" font-size="11" fill="#FFFFFF" x="223.43150465041316" y="260.3916015625" width="28.43150465041316" height="27" class="recharts-bar-label" fill-opacity="0.8">0.8166267397699926 us/op</text></g><g><text stroke="#337AB7" font-size="11" fill="#FFFFFF" x="213.62959777999677" y="371.7685546875" width="18.62959777999677" height="27" class="recharts-bar-label" fill-opacity="0.8">0.5350904880120015 us/op</text></g><g><text stroke="#337AB7" font-size="11" fill="#FFFFFF" x="196.3825318668934" y="483.1455078125" width="1.3825318668934017" height="27" class="recharts-bar-label" fill-opacity="0.8">0.03970991000903261 us/op</text></g><g><text stroke="#337AB7" font-size="11" fill="#FFFFFF" x="264.63157894736844" y="594.5224609375" width="69.63157894736844" height="27" class="recharts-bar-label" fill-opacity="0.8">2 us/op</text></g><g><text stroke="#337AB7" font-size="11" fill="#FFFFFF" x="213.39289494409053" y="705.8994140625" width="18.39289494409053" height="27" class="recharts-bar-label" fill-opacity="0.8">0.5282917671016172 us/op</text></g><g><text stroke="#337AB7" font-size="11" fill="#FFFFFF" x="195.8823845671555" y="817.2763671875" width="0.8823845671554977" height="27" class="recharts-bar-label" fill-opacity="0.8">0.02534437910197168 us/op</text></g></g></g><g class="recharts-layer recharts-bar"><defs><clipPath id="clipPath-recharts-bar-11"><rect x="188" y="20" width="1323" height="891.015625"></rect></clipPath></defs><g class="recharts-layer recharts-bar-rectangles" clip-path="url(#clipPath-recharts-bar-11)"><g class="recharts-layer"><g class="recharts-layer recharts-bar-rectangle"><path stroke="#337AB7" fill="#337AB7" width="5.556790395536183" height="27" x="188" y="62.1376953125" radius="0" class="recharts-rectangle" d="M 188,62.1376953125 h 5.556790395536183 v 27 h -5.556790395536183 Z"></path></g><g class="recharts-layer recharts-bar-rectangle"><path stroke="#337AB7" fill="#337AB7" width="21.52345045211746" height="27" x="188" y="173.5146484375" radius="0" class="recharts-rectangle" d="M 188,173.5146484375 h 21.52345045211746 v 27 h -21.52345045211746 Z"></path></g><g class="recharts-layer recharts-bar-rectangle"><path stroke="#337AB7" fill="#337AB7" width="139.26315789473688" height="27" x="188" y="284.8916015625" radius="0" class="recharts-rectangle" d="M 188,284.8916015625 h 139.26315789473688 v 27 h -139.26315789473688 Z"></path></g><g class="recharts-layer recharts-bar-rectangle"><path stroke="#337AB7" fill="#337AB7" width="6.497545964212236" height="27" x="188" y="396.2685546875" radius="0" class="recharts-rectangle" d="M 188,396.2685546875 h 6.497545964212236 v 27 h -6.497545964212236 Z"></path></g><g class="recharts-layer recharts-bar-rectangle"><path stroke="#337AB7" fill="#337AB7" width="6.118354533575484" height="27" x="188" y="507.6455078125" radius="0" class="recharts-rectangle" d="M 188,507.6455078125 h 6.118354533575484 v 27 h -6.118354533575484 Z"></path></g><g class="recharts-layer recharts-bar-rectangle"><path stroke="#337AB7" fill="#337AB7" width="34.81578947368422" height="27" x="188" y="619.0224609375" radius="0" class="recharts-rectangle" d="M 188,619.0224609375 h 34.81578947368422 v 27 h -34.81578947368422 Z"></path></g><g class="recharts-layer recharts-bar-rectangle"><path stroke="#337AB7" fill="#337AB7" width="34.695911846061534" height="27" x="188" y="730.3994140625" radius="0" class="recharts-rectangle" d="M 188,730.3994140625 h 34.695911846061534 v 27 h -34.695911846061534 Z"></path></g><g class="recharts-layer recharts-bar-rectangle"><path stroke="#337AB7" fill="#337AB7" width="2.225191948231952" height="27" x="188" y="841.7763671875" radius="0" class="recharts-rectangle" d="M 188,841.7763671875 h 2.225191948231952 v 27 h -2.225191948231952 Z"></path></g></g></g><g class="recharts-layer recharts-errorBars"><g class="recharts-layer recharts-errorBar" stroke-width="2px" stroke="#143049"><line x1="193.98110203402157" y1="79.6376953125" x2="193.98110203402157" y2="71.6376953125" stroke="#143049" stroke-width="2px"></line><line x1="193.31086578612118" y1="75.6376953125" x2="193.98110203402157" y2="75.6376953125" stroke="#143049" stroke-width="2px"></line><line x1="193.31086578612118" y1="79.6376953125" x2="193.31086578612118" y2="71.6376953125" stroke="#143049" stroke-width="2px"></line></g><g class="recharts-layer recharts-errorBar" stroke-width="2px" stroke="#143049"><line x1="216.63440450373625" y1="191.0146484375" x2="216.63440450373625" y2="183.0146484375" stroke="#143049" stroke-width="2px"></line><line x1="204.45413814006795" y1="187.0146484375" x2="216.63440450373625" y2="187.0146484375" stroke="#143049" stroke-width="2px"></line><line x1="204.45413814006795" y1="191.0146484375" x2="204.45413814006795" y2="183.0146484375" stroke="#143049" stroke-width="2px"></line></g><g class="recharts-layer recharts-errorBar" stroke-width="2px" stroke="#143049"><line x1="327.2631578947369" y1="302.3916015625" x2="327.2631578947369" y2="294.3916015625" stroke="#143049" stroke-width="2px"></line><line x1="292.4473684210526" y1="298.3916015625" x2="327.2631578947369" y2="298.3916015625" stroke="#143049" stroke-width="2px"></line><line x1="292.4473684210526" y1="302.3916015625" x2="292.4473684210526" y2="294.3916015625" stroke="#143049" stroke-width="2px"></line></g><g class="recharts-layer recharts-errorBar" stroke-width="2px" stroke="#143049"><line x1="196.56576260130564" y1="413.7685546875" x2="196.56576260130564" y2="405.7685546875" stroke="#143049" stroke-width="2px"></line><line x1="193.62662650895942" y1="409.7685546875" x2="196.56576260130564" y2="409.7685546875" stroke="#143049" stroke-width="2px"></line><line x1="193.62662650895942" y1="413.7685546875" x2="193.62662650895942" y2="405.7685546875" stroke="#143049" stroke-width="2px"></line></g><g class="recharts-layer recharts-errorBar" stroke-width="2px" stroke="#143049"><line x1="195.00518681289677" y1="525.1455078125" x2="195.00518681289677" y2="517.1455078125" stroke="#143049" stroke-width="2px"></line><line x1="193.33525381083516" y1="521.1455078125" x2="195.00518681289677" y2="521.1455078125" stroke="#143049" stroke-width="2px"></line><line x1="193.33525381083516" y1="525.1455078125" x2="193.33525381083516" y2="517.1455078125" stroke="#143049" stroke-width="2px"></line></g><g class="recharts-layer recharts-errorBar" stroke-width="2px" stroke="#143049"><line x1="292.4473684210526" y1="636.5224609375" x2="292.4473684210526" y2="628.5224609375" stroke="#143049" stroke-width="2px"></line><line x1="218.31371026851266" y1="632.5224609375" x2="292.4473684210526" y2="632.5224609375" stroke="#143049" stroke-width="2px"></line><line x1="218.31371026851266" y1="636.5224609375" x2="218.31371026851266" y2="628.5224609375" stroke="#143049" stroke-width="2px"></line></g><g class="recharts-layer recharts-errorBar" stroke-width="2px" stroke="#143049"><line x1="222.81578947368422" y1="747.8994140625" x2="222.81578947368422" y2="739.8994140625" stroke="#143049" stroke-width="2px"></line><line x1="216.9366786513668" y1="743.8994140625" x2="222.81578947368422" y2="743.8994140625" stroke="#143049" stroke-width="2px"></line><line x1="216.9366786513668" y1="747.8994140625" x2="216.9366786513668" y2="739.8994140625" stroke="#143049" stroke-width="2px"></line></g><g class="recharts-layer recharts-errorBar" stroke-width="2px" stroke="#143049"><line x1="191.100083314481" y1="859.2763671875" x2="191.100083314481" y2="851.2763671875" stroke="#143049" stroke-width="2px"></line><line x1="189.74959944441036" y1="855.2763671875" x2="191.100083314481" y2="855.2763671875" stroke="#143049" stroke-width="2px"></line><line x1="189.74959944441036" y1="859.2763671875" x2="189.74959944441036" y2="851.2763671875" stroke="#143049" stroke-width="2px"></line></g></g><g class="recharts-layer recharts-label-list"><g><text stroke="#337AB7" font-size="11" fill="#FFFFFF" x="200.55679039553618" y="68.6376953125" width="5.556790395536183" height="27" class="recharts-bar-label" fill-opacity="0.8">0.15960546865485603 us/op</text></g><g><text stroke="#337AB7" font-size="11" fill="#FFFFFF" x="216.52345045211746" y="180.0146484375" width="21.52345045211746" height="27" class="recharts-bar-label" fill-opacity="0.8">0.6182094612097224 us/op</text></g><g><text stroke="#337AB7" font-size="11" fill="#FFFFFF" x="334.2631578947369" y="291.3916015625" width="139.26315789473688" height="27" class="recharts-bar-label" fill-opacity="0.8">4 us/op</text></g><g><text stroke="#337AB7" font-size="11" fill="#FFFFFF" x="201.49754596421224" y="402.7685546875" width="6.497545964212236" height="27" class="recharts-bar-label" fill-opacity="0.8">0.1866264146939269 us/op</text></g><g><text stroke="#337AB7" font-size="11" fill="#FFFFFF" x="201.11835453357548" y="514.1455078125" width="6.118354533575484" height="27" class="recharts-bar-label" fill-opacity="0.8">0.17573505085099614 us/op</text></g><g><text stroke="#337AB7" font-size="11" fill="#FFFFFF" x="229.81578947368422" y="625.5224609375" width="34.81578947368422" height="27" class="recharts-bar-label" fill-opacity="0.8">1 us/op</text></g><g><text stroke="#337AB7" font-size="11" fill="#FFFFFF" x="229.69591184606153" y="736.8994140625" width="34.695911846061534" height="27" class="recharts-bar-label" fill-opacity="0.8">0.9965568028347225 us/op</text></g><g><text stroke="#337AB7" font-size="11" fill="#FFFFFF" x="197.22519194823195" y="848.2763671875" width="2.225191948231952" height="27" class="recharts-bar-label" fill-opacity="0.8">0.06391329858867345 us/op</text></g></g></g><g class="recharts-layer recharts-bar"><defs><clipPath id="clipPath-recharts-bar-12"><rect x="188" y="20" width="1323" height="891.015625"></rect></clipPath></defs><g class="recharts-layer recharts-bar-rectangles" clip-path="url(#clipPath-recharts-bar-12)"><g class="recharts-layer"><g class="recharts-layer recharts-bar-rectangle"><path stroke="#63A0D4" fill="#63A0D4" width="12.22334381894811" height="27" x="188" y="93.1376953125" radius="0" class="recharts-rectangle" d="M 188,93.1376953125 h 12.22334381894811 v 27 h -12.22334381894811 Z"></path></g><g class="recharts-layer recharts-bar-rectangle"><path stroke="#63A0D4" fill="#63A0D4" width="28.671351970385842" height="27" x="188" y="204.5146484375" radius="0" class="recharts-rectangle" d="M 188,204.5146484375 h 28.671351970385842 v 27 h -28.671351970385842 Z"></path></g><g class="recharts-layer recharts-bar-rectangle"><path stroke="#63A0D4" fill="#63A0D4" width="522.2368421052631" height="27" x="188" y="315.8916015625" radius="0" class="recharts-rectangle" d="M 188,315.8916015625 h 522.2368421052631 v 27 h -522.2368421052631 Z"></path></g><g class="recharts-layer recharts-bar-rectangle"><path stroke="#63A0D4" fill="#63A0D4" width="6.880816906046533" height="27" x="188" y="427.2685546875" radius="0" class="recharts-rectangle" d="M 188,427.2685546875 h 6.880816906046533 v 27 h -6.880816906046533 Z"></path></g><g class="recharts-layer recharts-bar-rectangle"><path stroke="#63A0D4" fill="#63A0D4" width="12.180211594597267" height="27" x="188" y="538.6455078125" radius="0" class="recharts-rectangle" d="M 188,538.6455078125 h 12.180211594597267 v 27 h -12.180211594597267 Z"></path></g><g class="recharts-layer recharts-bar-rectangle"><path stroke="#63A0D4" fill="#63A0D4" width="69.63157894736844" height="27" x="188" y="650.0224609375" radius="0" class="recharts-rectangle" d="M 188,650.0224609375 h 69.63157894736844 v 27 h -69.63157894736844 Z"></path></g><g class="recharts-layer recharts-bar-rectangle"><path stroke="#63A0D4" fill="#63A0D4" width="69.63157894736844" height="27" x="188" y="761.3994140625" radius="0" class="recharts-rectangle" d="M 188,761.3994140625 h 69.63157894736844 v 27 h -69.63157894736844 Z"></path></g><g class="recharts-layer recharts-bar-rectangle"><path stroke="#63A0D4" fill="#63A0D4" width="3.004893383282024" height="27" x="188" y="872.7763671875" radius="0" class="recharts-rectangle" d="M 188,872.7763671875 h 3.004893383282024 v 27 h -3.004893383282024 Z"></path></g></g></g><g class="recharts-layer recharts-errorBars"><g class="recharts-layer recharts-errorBar" stroke-width="2px" stroke="#143049"><line x1="202.77856523175126" y1="110.6376953125" x2="202.77856523175126" y2="102.6376953125" stroke="#143049" stroke-width="2px"></line><line x1="198.52495775864608" y1="106.6376953125" x2="202.77856523175126" y2="106.6376953125" stroke="#143049" stroke-width="2px"></line><line x1="198.52495775864608" y1="110.6376953125" x2="198.52495775864608" y2="102.6376953125" stroke="#143049" stroke-width="2px"></line></g><g class="recharts-layer recharts-errorBar" stroke-width="2px" stroke="#143049"><line x1="220.98030843523307" y1="222.0146484375" x2="220.98030843523307" y2="214.0146484375" stroke="#143049" stroke-width="2px"></line><line x1="212.65726030526568" y1="218.0146484375" x2="220.98030843523307" y2="218.0146484375" stroke="#143049" stroke-width="2px"></line><line x1="212.65726030526568" y1="222.0146484375" x2="212.65726030526568" y2="214.0146484375" stroke="#143049" stroke-width="2px"></line></g><g class="recharts-layer recharts-errorBar" stroke-width="2px" stroke="#143049"><line x1="1511" y1="333.3916015625" x2="1511" y2="325.3916015625" stroke="#143049" stroke-width="2px"></line><line x1="431.7105263157895" y1="329.3916015625" x2="1511" y2="329.3916015625" stroke="#143049" stroke-width="2px"></line><line x1="431.7105263157895" y1="333.3916015625" x2="431.7105263157895" y2="325.3916015625" stroke="#143049" stroke-width="2px"></line></g><g class="recharts-layer recharts-errorBar" stroke-width="2px" stroke="#143049"><line x1="195.19696178861957" y1="444.7685546875" x2="195.19696178861957" y2="436.7685546875" stroke="#143049" stroke-width="2px"></line><line x1="194.5451400564333" y1="440.7685546875" x2="195.19696178861957" y2="440.7685546875" stroke="#143049" stroke-width="2px"></line><line x1="194.5451400564333" y1="444.7685546875" x2="194.5451400564333" y2="436.7685546875" stroke="#143049" stroke-width="2px"></line></g><g class="recharts-layer recharts-errorBar" stroke-width="2px" stroke="#143049"><line x1="211.38012548181834" y1="556.1455078125" x2="211.38012548181834" y2="548.1455078125" stroke="#143049" stroke-width="2px"></line><line x1="197.00976167947832" y1="552.1455078125" x2="211.38012548181834" y2="552.1455078125" stroke="#143049" stroke-width="2px"></line><line x1="197.00976167947832" y1="556.1455078125" x2="197.00976167947832" y2="548.1455078125" stroke="#143049" stroke-width="2px"></line></g><g class="recharts-layer recharts-errorBar" stroke-width="2px" stroke="#143049"><line x1="292.4473684210526" y1="667.5224609375" x2="292.4473684210526" y2="659.5224609375" stroke="#143049" stroke-width="2px"></line><line x1="257.63157894736844" y1="663.5224609375" x2="292.4473684210526" y2="663.5224609375" stroke="#143049" stroke-width="2px"></line><line x1="257.63157894736844" y1="667.5224609375" x2="257.63157894736844" y2="659.5224609375" stroke="#143049" stroke-width="2px"></line></g><g class="recharts-layer recharts-errorBar" stroke-width="2px" stroke="#143049"><line x1="292.4473684210526" y1="778.8994140625" x2="292.4473684210526" y2="770.8994140625" stroke="#143049" stroke-width="2px"></line><line x1="257.63157894736844" y1="774.8994140625" x2="292.4473684210526" y2="774.8994140625" stroke="#143049" stroke-width="2px"></line><line x1="257.63157894736844" y1="778.8994140625" x2="257.63157894736844" y2="770.8994140625" stroke="#143049" stroke-width="2px"></line></g><g class="recharts-layer recharts-errorBar" stroke-width="2px" stroke="#143049"><line x1="191.33164395792747" y1="890.2763671875" x2="191.33164395792747" y2="882.2763671875" stroke="#143049" stroke-width="2px"></line><line x1="190.74707213201216" y1="886.2763671875" x2="191.33164395792747" y2="886.2763671875" stroke="#143049" stroke-width="2px"></line><line x1="190.74707213201216" y1="890.2763671875" x2="190.74707213201216" y2="882.2763671875" stroke="#143049" stroke-width="2px"></line></g></g><g class="recharts-layer recharts-label-list"><g><text stroke="#337AB7" font-size="11" fill="#FFFFFF" x="207.2233438189481" y="99.6376953125" width="12.22334381894811" height="27" class="recharts-bar-label" fill-opacity="0.8">0.35108621702194104 us/op</text></g><g><text stroke="#337AB7" font-size="11" fill="#FFFFFF" x="223.67135197038584" y="211.0146484375" width="28.671351970385842" height="27" class="recharts-bar-label" fill-opacity="0.8">0.8235157784388983 us/op</text></g><g><text stroke="#337AB7" font-size="11" fill="#FFFFFF" x="717.2368421052631" y="322.3916015625" width="522.2368421052631" height="27" class="recharts-bar-label" fill-opacity="0.8">15 us/op</text></g><g><text stroke="#337AB7" font-size="11" fill="#FFFFFF" x="201.88081690604653" y="433.7685546875" width="6.880816906046533" height="27" class="recharts-bar-label" fill-opacity="0.8">0.19763495270579567 us/op</text></g><g><text stroke="#337AB7" font-size="11" fill="#FFFFFF" x="207.18021159459727" y="545.1455078125" width="12.180211594597267" height="27" class="recharts-bar-label" fill-opacity="0.8">0.34984734738828105 us/op</text></g><g><text stroke="#337AB7" font-size="11" fill="#FFFFFF" x="264.63157894736844" y="656.5224609375" width="69.63157894736844" height="27" class="recharts-bar-label" fill-opacity="0.8">2 us/op</text></g><g><text stroke="#337AB7" font-size="11" fill="#FFFFFF" x="264.63157894736844" y="767.8994140625" width="69.63157894736844" height="27" class="recharts-bar-label" fill-opacity="0.8">2 us/op</text></g><g><text stroke="#337AB7" font-size="11" fill="#FFFFFF" x="198.00489338328202" y="879.2763671875" width="3.004893383282024" height="27" class="recharts-bar-label" fill-opacity="0.8">0.0863083511449104 us/op</text></g></g></g></svg>
