<svg xmlns:xlink="http://www.w3.org/1999/xlink" xmlns="http://www.w3.org/2000/svg" class="recharts-surface" width="1556" height="1252" viewBox="0 0 1556 1252" version="1.1"><defs><clipPath id="recharts17-clip"><rect x="188" y="20" height="1179.015625" width="1323"></rect></clipPath></defs><g class="recharts-layer recharts-cartesian-axis recharts-xAxis xAxis"><line class="recharts-cartesian-axis-line" width="1323" height="30" x="188" y="1199.015625" stroke="#666666" fill="none" x1="188" y1="1199.015625" x2="1511" y2="1199.015625"></line><g class="recharts-cartesian-axis-ticks"><g class="recharts-layer recharts-cartesian-axis-tick"><line class="recharts-cartesian-axis-tick-line" width="1323" height="30" x="188" y="1199.015625" stroke="#666666" fill="none" x1="188" y1="1205.015625" x2="188" y2="1199.015625"></line><text width="1323" height="30" x="188" y="1207.015625" stroke="none" fill="#666666" class="recharts-text recharts-cartesian-axis-tick-value" text-anchor="middle"><tspan x="188" dy="0.71em" fill="#666666">0</tspan></text></g><g class="recharts-layer recharts-cartesian-axis-tick"><line class="recharts-cartesian-axis-tick-line" width="1323" height="30" x="188" y="1199.015625" stroke="#666666" fill="none" x1="601.4375" y1="1205.015625" x2="601.4375" y2="1199.015625"></line><text width="1323" height="30" x="601.4375" y="1207.015625" stroke="none" fill="#666666" class="recharts-text recharts-cartesian-axis-tick-value" text-anchor="middle"><tspan x="601.4375" dy="0.71em" fill="#666666">5</tspan></text></g><g class="recharts-layer recharts-cartesian-axis-tick"><line class="recharts-cartesian-axis-tick-line" width="1323" height="30" x="188" y="1199.015625" stroke="#666666" fill="none" x1="1014.875" y1="1205.015625" x2="1014.875" y2="1199.015625"></line><text width="1323" height="30" x="1014.875" y="1207.015625" stroke="none" fill="#666666" class="recharts-text recharts-cartesian-axis-tick-value" text-anchor="middle"><tspan x="1014.875" dy="0.71em" fill="#666666">10</tspan></text></g><g class="recharts-layer recharts-cartesian-axis-tick"><line class="recharts-cartesian-axis-tick-line" width="1323" height="30" x="188" y="1199.015625" stroke="#666666" fill="none" x1="1428.3125" y1="1205.015625" x2="1428.3125" y2="1199.015625"></line><text width="1323" height="30" x="1428.3125" y="1207.015625" stroke="none" fill="#666666" class="recharts-text recharts-cartesian-axis-tick-value" text-anchor="middle"><tspan x="1428.3125" dy="0.71em" fill="#666666">15</tspan></text></g></g></g><g class="recharts-layer recharts-cartesian-axis recharts-yAxis yAxis"><line class="recharts-cartesian-axis-line" width="60" height="1179.015625" x="128" y="20" stroke="#666666" fill="none" x1="188" y1="20" x2="188" y2="1199.015625"></line><g class="recharts-cartesian-axis-ticks"><g class="recharts-layer recharts-cartesian-axis-tick"><line class="recharts-cartesian-axis-tick-line" width="60" height="1179.015625" x="128" y="20" stroke="#666666" fill="none" x1="182" y1="93.6884765625" x2="188" y2="93.6884765625"></line><text width="60" height="1179.015625" x="180" y="93.6884765625" stroke="none" fill="#666666" class="recharts-text recharts-cartesian-axis-tick-value" text-anchor="end"><tspan x="180" dy="0.355em" fill="#666666">testAviator</tspan></text></g><g class="recharts-layer recharts-cartesian-axis-tick"><line class="recharts-cartesian-axis-tick-line" width="60" height="1179.015625" x="128" y="20" stroke="#666666" fill="none" x1="182" y1="241.0654296875" x2="188" y2="241.0654296875"></line><text width="60" height="1179.015625" x="180" y="241.0654296875" stroke="none" fill="#666666" class="recharts-text recharts-cartesian-axis-tick-value" text-anchor="end"><tspan x="180" dy="0.355em" fill="#666666">testJEXL</tspan></text></g><g class="recharts-layer recharts-cartesian-axis-tick"><line class="recharts-cartesian-axis-tick-line" width="60" height="1179.015625" x="128" y="20" stroke="#666666" fill="none" x1="182" y1="388.4423828125" x2="188" y2="388.4423828125"></line><text width="60" height="1179.015625" x="180" y="388.4423828125" stroke="none" fill="#666666" class="recharts-text recharts-cartesian-axis-tick-value" text-anchor="end"><tspan x="180" dy="0.355em" fill="#666666">testJUEL</tspan></text></g><g class="recharts-layer recharts-cartesian-axis-tick"><line class="recharts-cartesian-axis-tick-line" width="60" height="1179.015625" x="128" y="20" stroke="#666666" fill="none" x1="182" y1="535.8193359375" x2="188" y2="535.8193359375"></line><text width="60" height="1179.015625" x="180" y="535.8193359375" stroke="none" fill="#666666" class="recharts-text recharts-cartesian-axis-tick-value" text-anchor="end"><tspan x="180" dy="0.355em" fill="#666666">testJanino</tspan></text></g><g class="recharts-layer recharts-cartesian-axis-tick"><line class="recharts-cartesian-axis-tick-line" width="60" height="1179.015625" x="128" y="20" stroke="#666666" fill="none" x1="182" y1="683.1962890625" x2="188" y2="683.1962890625"></line><text width="60" height="1179.015625" x="180" y="683.1962890625" stroke="none" fill="#666666" class="recharts-text recharts-cartesian-axis-tick-value" text-anchor="end"><tspan x="180" dy="0.355em" fill="#666666">testMVEL</tspan></text></g><g class="recharts-layer recharts-cartesian-axis-tick"><line class="recharts-cartesian-axis-tick-line" width="60" height="1179.015625" x="128" y="20" stroke="#666666" fill="none" x1="182" y1="830.5732421875" x2="188" y2="830.5732421875"></line><text width="60" height="1179.015625" x="180" y="830.5732421875" stroke="none" fill="#666666" class="recharts-text recharts-cartesian-axis-tick-value" text-anchor="end"><tspan x="180" dy="0.355em" fill="#666666">testOGNL</tspan></text></g><g class="recharts-layer recharts-cartesian-axis-tick"><line class="recharts-cartesian-axis-tick-line" width="60" height="1179.015625" x="128" y="20" stroke="#666666" fill="none" x1="182" y1="977.9501953125" x2="188" y2="977.9501953125"></line><text width="60" height="1179.015625" x="180" y="977.9501953125" stroke="none" fill="#666666" class="recharts-text recharts-cartesian-axis-tick-value" text-anchor="end"><tspan x="180" dy="0.355em" fill="#666666">testQlExpress</tspan></text></g><g class="recharts-layer recharts-cartesian-axis-tick"><line class="recharts-cartesian-axis-tick-line" width="60" height="1179.015625" x="128" y="20" stroke="#666666" fill="none" x1="182" y1="1125.3271484375" x2="188" y2="1125.3271484375"></line><text width="60" height="1179.015625" x="180" y="1125.3271484375" stroke="none" fill="#666666" class="recharts-text recharts-cartesian-axis-tick-value" text-anchor="end"><tspan x="180" dy="0.355em" fill="#666666">testSpEl</tspan></text></g></g></g><g class="recharts-cartesian-grid"><g class="recharts-cartesian-grid-horizontal"><line stroke-dasharray="3 3" stroke="#CCCCCC" fill="none" x="188" y="20" width="1323" height="1179.015625" x1="188" y1="93.6884765625" x2="1511" y2="93.6884765625"></line><line stroke-dasharray="3 3" stroke="#CCCCCC" fill="none" x="188" y="20" width="1323" height="1179.015625" x1="188" y1="241.0654296875" x2="1511" y2="241.0654296875"></line><line stroke-dasharray="3 3" stroke="#CCCCCC" fill="none" x="188" y="20" width="1323" height="1179.015625" x1="188" y1="388.4423828125" x2="1511" y2="388.4423828125"></line><line stroke-dasharray="3 3" stroke="#CCCCCC" fill="none" x="188" y="20" width="1323" height="1179.015625" x1="188" y1="535.8193359375" x2="1511" y2="535.8193359375"></line><line stroke-dasharray="3 3" stroke="#CCCCCC" fill="none" x="188" y="20" width="1323" height="1179.015625" x1="188" y1="683.1962890625" x2="1511" y2="683.1962890625"></line><line stroke-dasharray="3 3" stroke="#CCCCCC" fill="none" x="188" y="20" width="1323" height="1179.015625" x1="188" y1="830.5732421875" x2="1511" y2="830.5732421875"></line><line stroke-dasharray="3 3" stroke="#CCCCCC" fill="none" x="188" y="20" width="1323" height="1179.015625" x1="188" y1="977.9501953125" x2="1511" y2="977.9501953125"></line><line stroke-dasharray="3 3" stroke="#CCCCCC" fill="none" x="188" y="20" width="1323" height="1179.015625" x1="188" y1="1125.3271484375" x2="1511" y2="1125.3271484375"></line><line stroke-dasharray="3 3" stroke="#CCCCCC" fill="none" x="188" y="20" width="1323" height="1179.015625" x1="188" y1="20" x2="1511" y2="20"></line><line stroke-dasharray="3 3" stroke="#CCCCCC" fill="none" x="188" y="20" width="1323" height="1179.015625" x1="188" y1="1199.015625" x2="1511" y2="1199.015625"></line></g><g class="recharts-cartesian-grid-vertical"><line stroke-dasharray="3 3" stroke="#CCCCCC" fill="none" x="188" y="20" width="1323" height="1179.015625" x1="188" y1="20" x2="188" y2="1199.015625"></line><line stroke-dasharray="3 3" stroke="#CCCCCC" fill="none" x="188" y="20" width="1323" height="1179.015625" x1="601.4375" y1="20" x2="601.4375" y2="1199.015625"></line><line stroke-dasharray="3 3" stroke="#CCCCCC" fill="none" x="188" y="20" width="1323" height="1179.015625" x1="1014.875" y1="20" x2="1014.875" y2="1199.015625"></line><line stroke-dasharray="3 3" stroke="#CCCCCC" fill="none" x="188" y="20" width="1323" height="1179.015625" x1="1428.3125" y1="20" x2="1428.3125" y2="1199.015625"></line><line stroke-dasharray="3 3" stroke="#CCCCCC" fill="none" x="188" y="20" width="1323" height="1179.015625" x1="1511" y1="20" x2="1511" y2="1199.015625"></line></g></g><g class="recharts-layer recharts-bar"><defs><clipPath id="clipPath-recharts-bar-18"><rect x="188" y="20" width="1323" height="1179.015625"></rect></clipPath></defs><g class="recharts-layer recharts-bar-rectangles" clip-path="url(#clipPath-recharts-bar-18)"><g class="recharts-layer"><g class="recharts-layer recharts-bar-rectangle"><path stroke="#22527B" fill="#22527B" width="50.19893332613373" height="26" x="188" y="34.7376953125" radius="0" class="recharts-rectangle" d="M 188,34.7376953125 h 50.19893332613373 v 26 h -50.19893332613373 Z"></path></g><g class="recharts-layer recharts-bar-rectangle"><path stroke="#22527B" fill="#22527B" width="165.375" height="26" x="188" y="182.1146484375" radius="0" class="recharts-rectangle" d="M 188,182.1146484375 h 165.375 v 26 h -165.375 Z"></path></g><g class="recharts-layer recharts-bar-rectangle"><path stroke="#22527B" fill="#22527B" width="165.375" height="26" x="188" y="329.4916015625" radius="0" class="recharts-rectangle" d="M 188,329.4916015625 h 165.375 v 26 h -165.375 Z"></path></g><g class="recharts-layer recharts-bar-rectangle"><path stroke="#22527B" fill="#22527B" width="47.44897508755662" height="26" x="188" y="476.8685546875" radius="0" class="recharts-rectangle" d="M 188,476.8685546875 h 47.44897508755662 v 26 h -47.44897508755662 Z"></path></g><g class="recharts-layer recharts-bar-rectangle"><path stroke="#22527B" fill="#22527B" width="82.6875" height="26" x="188" y="624.2455078125" radius="0" class="recharts-rectangle" d="M 188,624.2455078125 h 82.6875 v 26 h -82.6875 Z"></path></g><g class="recharts-layer recharts-bar-rectangle"><path stroke="#22527B" fill="#22527B" width="82.6875" height="26" x="188" y="771.6224609375" radius="0" class="recharts-rectangle" d="M 188,771.6224609375 h 82.6875 v 26 h -82.6875 Z"></path></g><g class="recharts-layer recharts-bar-rectangle"><path stroke="#22527B" fill="#22527B" width="165.375" height="26" x="188" y="918.9994140625" radius="0" class="recharts-rectangle" d="M 188,918.9994140625 h 165.375 v 26 h -165.375 Z"></path></g><g class="recharts-layer recharts-bar-rectangle"><path stroke="#22527B" fill="#22527B" width="6.1022064383959105" height="26" x="188" y="1066.3763671875" radius="0" class="recharts-rectangle" d="M 188,1066.3763671875 h 6.1022064383959105 v 26 h -6.1022064383959105 Z"></path></g></g></g><g class="recharts-layer recharts-errorBars"><g class="recharts-layer recharts-errorBar" stroke-width="2px" stroke="#143049"><line x1="248.47251243418515" y1="51.7376953125" x2="248.47251243418515" y2="43.7376953125" stroke="#143049" stroke-width="2px"></line><line x1="231.10826593187994" y1="47.7376953125" x2="248.47251243418515" y2="47.7376953125" stroke="#143049" stroke-width="2px"></line><line x1="231.10826593187994" y1="51.7376953125" x2="231.10826593187994" y2="43.7376953125" stroke="#143049" stroke-width="2px"></line></g><g class="recharts-layer recharts-errorBar" stroke-width="2px" stroke="#143049"><line x1="436.0625" y1="199.1146484375" x2="436.0625" y2="191.1146484375" stroke="#143049" stroke-width="2px"></line><line x1="353.375" y1="195.1146484375" x2="436.0625" y2="195.1146484375" stroke="#143049" stroke-width="2px"></line><line x1="353.375" y1="199.1146484375" x2="353.375" y2="191.1146484375" stroke="#143049" stroke-width="2px"></line></g><g class="recharts-layer recharts-errorBar" stroke-width="2px" stroke="#143049"><line x1="436.0625" y1="346.4916015625" x2="436.0625" y2="338.4916015625" stroke="#143049" stroke-width="2px"></line><line x1="353.375" y1="342.4916015625" x2="436.0625" y2="342.4916015625" stroke="#143049" stroke-width="2px"></line><line x1="353.375" y1="346.4916015625" x2="353.375" y2="338.4916015625" stroke="#143049" stroke-width="2px"></line></g><g class="recharts-layer recharts-errorBar" stroke-width="2px" stroke="#143049"><line x1="239.48550766433698" y1="493.8685546875" x2="239.48550766433698" y2="485.8685546875" stroke="#143049" stroke-width="2px"></line><line x1="230.0730301534595" y1="489.8685546875" x2="239.48550766433698" y2="489.8685546875" stroke="#143049" stroke-width="2px"></line><line x1="230.0730301534595" y1="493.8685546875" x2="230.0730301534595" y2="485.8685546875" stroke="#143049" stroke-width="2px"></line></g><g class="recharts-layer recharts-errorBar" stroke-width="2px" stroke="#143049"><line x1="270.6875" y1="641.2455078125" x2="270.6875" y2="633.2455078125" stroke="#143049" stroke-width="2px"></line><line x1="270.6875" y1="637.2455078125" x2="270.6875" y2="637.2455078125" stroke="#143049" stroke-width="2px"></line><line x1="270.6875" y1="641.2455078125" x2="270.6875" y2="633.2455078125" stroke="#143049" stroke-width="2px"></line></g><g class="recharts-layer recharts-errorBar" stroke-width="2px" stroke="#143049"><line x1="353.375" y1="788.6224609375" x2="353.375" y2="780.6224609375" stroke="#143049" stroke-width="2px"></line><line x1="262.8675123992956" y1="784.6224609375" x2="353.375" y2="784.6224609375" stroke="#143049" stroke-width="2px"></line><line x1="262.8675123992956" y1="788.6224609375" x2="262.8675123992956" y2="780.6224609375" stroke="#143049" stroke-width="2px"></line></g><g class="recharts-layer recharts-errorBar" stroke-width="2px" stroke="#143049"><line x1="436.0625" y1="935.9994140625" x2="436.0625" y2="927.9994140625" stroke="#143049" stroke-width="2px"></line><line x1="353.375" y1="931.9994140625" x2="436.0625" y2="931.9994140625" stroke="#143049" stroke-width="2px"></line><line x1="353.375" y1="935.9994140625" x2="353.375" y2="927.9994140625" stroke="#143049" stroke-width="2px"></line></g><g class="recharts-layer recharts-errorBar" stroke-width="2px" stroke="#143049"><line x1="194.70379204800503" y1="1083.3763671875" x2="194.70379204800503" y2="1075.3763671875" stroke="#143049" stroke-width="2px"></line><line x1="193.5454799959979" y1="1079.3763671875" x2="194.70379204800503" y2="1079.3763671875" stroke="#143049" stroke-width="2px"></line><line x1="193.5454799959979" y1="1083.3763671875" x2="193.5454799959979" y2="1075.3763671875" stroke="#143049" stroke-width="2px"></line></g></g><g class="recharts-layer recharts-label-list"><g><text stroke="#337AB7" font-size="11" fill="#FFFFFF" x="245.19893332613373" y="40.7376953125" width="50.19893332613373" height="26" class="recharts-bar-label" fill-opacity="0.8">0.6070921641860465 us/op</text></g><g><text stroke="#337AB7" font-size="11" fill="#FFFFFF" x="360.375" y="188.1146484375" width="165.375" height="26" class="recharts-bar-label" fill-opacity="0.8">2 us/op</text></g><g><text stroke="#337AB7" font-size="11" fill="#FFFFFF" x="360.375" y="335.4916015625" width="165.375" height="26" class="recharts-bar-label" fill-opacity="0.8">2 us/op</text></g><g><text stroke="#337AB7" font-size="11" fill="#FFFFFF" x="242.44897508755662" y="482.8685546875" width="47.44897508755662" height="26" class="recharts-bar-label" fill-opacity="0.8">0.5738349216938062 us/op</text></g><g><text stroke="#337AB7" font-size="11" fill="#FFFFFF" x="277.6875" y="630.2455078125" width="82.6875" height="26" class="recharts-bar-label" fill-opacity="0.8">1 us/op</text></g><g><text stroke="#337AB7" font-size="11" fill="#FFFFFF" x="277.6875" y="777.6224609375" width="82.6875" height="26" class="recharts-bar-label" fill-opacity="0.8">1 us/op</text></g><g><text stroke="#337AB7" font-size="11" fill="#FFFFFF" x="360.375" y="924.9994140625" width="165.375" height="26" class="recharts-bar-label" fill-opacity="0.8">2 us/op</text></g><g><text stroke="#337AB7" font-size="11" fill="#FFFFFF" x="201.1022064383959" y="1072.3763671875" width="6.1022064383959105" height="26" class="recharts-bar-label" fill-opacity="0.8">0.07379841497682105 us/op</text></g></g></g><g class="recharts-layer recharts-bar"><defs><clipPath id="clipPath-recharts-bar-19"><rect x="188" y="20" width="1323" height="1179.015625"></rect></clipPath></defs><g class="recharts-layer recharts-bar-rectangles" clip-path="url(#clipPath-recharts-bar-19)"><g class="recharts-layer"><g class="recharts-layer recharts-bar-rectangle"><path stroke="#337AB7" fill="#337AB7" width="496.125" height="26" x="188" y="64.7376953125" radius="0" class="recharts-rectangle" d="M 188,64.7376953125 h 496.125 v 26 h -496.125 Z"></path></g><g class="recharts-layer recharts-bar-rectangle"><path stroke="#337AB7" fill="#337AB7" width="1157.625" height="26" x="188" y="212.1146484375" radius="0" class="recharts-rectangle" d="M 188,212.1146484375 h 1157.625 v 26 h -1157.625 Z"></path></g><g class="recharts-layer recharts-bar-rectangle"><path stroke="#337AB7" fill="#337AB7" width="248.0625" height="26" x="188" y="359.4916015625" radius="0" class="recharts-rectangle" d="M 188,359.4916015625 h 248.0625 v 26 h -248.0625 Z"></path></g><g class="recharts-layer recharts-bar-rectangle"><path stroke="#337AB7" fill="#337AB7" width="413.4375" height="26" x="188" y="506.8685546875" radius="0" class="recharts-rectangle" d="M 188,506.8685546875 h 413.4375 v 26 h -413.4375 Z"></path></g><g class="recharts-layer recharts-bar-rectangle"><path stroke="#337AB7" fill="#337AB7" width="661.5" height="26" x="188" y="654.2455078125" radius="0" class="recharts-rectangle" d="M 188,654.2455078125 h 661.5 v 26 h -661.5 Z"></path></g><g class="recharts-layer recharts-bar-rectangle"><path stroke="#337AB7" fill="#337AB7" width="82.6875" height="26" x="188" y="801.6224609375" radius="0" class="recharts-rectangle" d="M 188,801.6224609375 h 82.6875 v 26 h -82.6875 Z"></path></g><g class="recharts-layer recharts-bar-rectangle"><path stroke="#337AB7" fill="#337AB7" width="413.4375" height="26" x="188" y="948.9994140625" radius="0" class="recharts-rectangle" d="M 188,948.9994140625 h 413.4375 v 26 h -413.4375 Z"></path></g><g class="recharts-layer recharts-bar-rectangle"><path stroke="#337AB7" fill="#337AB7" width="165.375" height="26" x="188" y="1096.3763671875" radius="0" class="recharts-rectangle" d="M 188,1096.3763671875 h 165.375 v 26 h -165.375 Z"></path></g></g></g><g class="recharts-layer recharts-errorBars"><g class="recharts-layer recharts-errorBar" stroke-width="2px" stroke="#143049"><line x1="684.125" y1="81.7376953125" x2="684.125" y2="73.7376953125" stroke="#143049" stroke-width="2px"></line><line x1="601.4375" y1="77.7376953125" x2="684.125" y2="77.7376953125" stroke="#143049" stroke-width="2px"></line><line x1="601.4375" y1="81.7376953125" x2="601.4375" y2="73.7376953125" stroke="#143049" stroke-width="2px"></line></g><g class="recharts-layer recharts-errorBar" stroke-width="2px" stroke="#143049"><line x1="1511" y1="229.1146484375" x2="1511" y2="221.1146484375" stroke="#143049" stroke-width="2px"></line><line x1="1262.9375" y1="225.1146484375" x2="1511" y2="225.1146484375" stroke="#143049" stroke-width="2px"></line><line x1="1262.9375" y1="229.1146484375" x2="1262.9375" y2="221.1146484375" stroke="#143049" stroke-width="2px"></line></g><g class="recharts-layer recharts-errorBar" stroke-width="2px" stroke="#143049"><line x1="518.75" y1="376.4916015625" x2="518.75" y2="368.4916015625" stroke="#143049" stroke-width="2px"></line><line x1="353.375" y1="372.4916015625" x2="518.75" y2="372.4916015625" stroke="#143049" stroke-width="2px"></line><line x1="353.375" y1="376.4916015625" x2="353.375" y2="368.4916015625" stroke="#143049" stroke-width="2px"></line></g><g class="recharts-layer recharts-errorBar" stroke-width="2px" stroke="#143049"><line x1="684.125" y1="523.8685546875" x2="684.125" y2="515.8685546875" stroke="#143049" stroke-width="2px"></line><line x1="518.75" y1="519.8685546875" x2="684.125" y2="519.8685546875" stroke="#143049" stroke-width="2px"></line><line x1="518.75" y1="523.8685546875" x2="518.75" y2="515.8685546875" stroke="#143049" stroke-width="2px"></line></g><g class="recharts-layer recharts-errorBar" stroke-width="2px" stroke="#143049"><line x1="1014.875" y1="671.2455078125" x2="1014.875" y2="663.2455078125" stroke="#143049" stroke-width="2px"></line><line x1="766.8125" y1="667.2455078125" x2="1014.875" y2="667.2455078125" stroke="#143049" stroke-width="2px"></line><line x1="766.8125" y1="671.2455078125" x2="766.8125" y2="663.2455078125" stroke="#143049" stroke-width="2px"></line></g><g class="recharts-layer recharts-errorBar" stroke-width="2px" stroke="#143049"><line x1="353.375" y1="818.6224609375" x2="353.375" y2="810.6224609375" stroke="#143049" stroke-width="2px"></line><line x1="270.6875" y1="814.6224609375" x2="353.375" y2="814.6224609375" stroke="#143049" stroke-width="2px"></line><line x1="270.6875" y1="818.6224609375" x2="270.6875" y2="810.6224609375" stroke="#143049" stroke-width="2px"></line></g><g class="recharts-layer recharts-errorBar" stroke-width="2px" stroke="#143049"><line x1="684.125" y1="965.9994140625" x2="684.125" y2="957.9994140625" stroke="#143049" stroke-width="2px"></line><line x1="518.75" y1="961.9994140625" x2="684.125" y2="961.9994140625" stroke="#143049" stroke-width="2px"></line><line x1="518.75" y1="965.9994140625" x2="518.75" y2="957.9994140625" stroke="#143049" stroke-width="2px"></line></g><g class="recharts-layer recharts-errorBar" stroke-width="2px" stroke="#143049"><line x1="353.375" y1="1113.3763671875" x2="353.375" y2="1105.3763671875" stroke="#143049" stroke-width="2px"></line><line x1="353.375" y1="1109.3763671875" x2="353.375" y2="1109.3763671875" stroke="#143049" stroke-width="2px"></line><line x1="353.375" y1="1113.3763671875" x2="353.375" y2="1105.3763671875" stroke="#143049" stroke-width="2px"></line></g></g><g class="recharts-layer recharts-label-list"><g><text stroke="#337AB7" font-size="11" fill="#FFFFFF" x="691.125" y="70.7376953125" width="496.125" height="26" class="recharts-bar-label" fill-opacity="0.8">6 us/op</text></g><g><text stroke="#337AB7" font-size="11" fill="#FFFFFF" x="1352.625" y="218.1146484375" width="1157.625" height="26" class="recharts-bar-label" fill-opacity="0.8">14 us/op</text></g><g><text stroke="#337AB7" font-size="11" fill="#FFFFFF" x="443.0625" y="365.4916015625" width="248.0625" height="26" class="recharts-bar-label" fill-opacity="0.8">3 us/op</text></g><g><text stroke="#337AB7" font-size="11" fill="#FFFFFF" x="608.4375" y="512.8685546875" width="413.4375" height="26" class="recharts-bar-label" fill-opacity="0.8">5 us/op</text></g><g><text stroke="#337AB7" font-size="11" fill="#FFFFFF" x="856.5" y="660.2455078125" width="661.5" height="26" class="recharts-bar-label" fill-opacity="0.8">8 us/op</text></g><g><text stroke="#337AB7" font-size="11" fill="#FFFFFF" x="277.6875" y="807.6224609375" width="82.6875" height="26" class="recharts-bar-label" fill-opacity="0.8">1 us/op</text></g><g><text stroke="#337AB7" font-size="11" fill="#FFFFFF" x="608.4375" y="954.9994140625" width="413.4375" height="26" class="recharts-bar-label" fill-opacity="0.8">5 us/op</text></g><g><text stroke="#337AB7" font-size="11" fill="#FFFFFF" x="360.375" y="1102.3763671875" width="165.375" height="26" class="recharts-bar-label" fill-opacity="0.8">2 us/op</text></g></g></g><g class="recharts-layer recharts-bar"><defs><clipPath id="clipPath-recharts-bar-20"><rect x="188" y="20" width="1323" height="1179.015625"></rect></clipPath></defs><g class="recharts-layer recharts-bar-rectangles" clip-path="url(#clipPath-recharts-bar-20)"><g class="recharts-layer"><g class="recharts-layer recharts-bar-rectangle"><path stroke="#63A0D4" fill="#63A0D4" width="63.59763071434293" height="26" x="188" y="94.7376953125" radius="0" class="recharts-rectangle" d="M 188,94.7376953125 h 63.59763071434293 v 26 h -63.59763071434293 Z"></path></g><g class="recharts-layer recharts-bar-rectangle"><path stroke="#63A0D4" fill="#63A0D4" width="330.75" height="26" x="188" y="242.1146484375" radius="0" class="recharts-rectangle" d="M 188,242.1146484375 h 330.75 v 26 h -330.75 Z"></path></g><g class="recharts-layer recharts-bar-rectangle"><path stroke="#63A0D4" fill="#63A0D4" width="248.0625" height="26" x="188" y="389.4916015625" radius="0" class="recharts-rectangle" d="M 188,389.4916015625 h 248.0625 v 26 h -248.0625 Z"></path></g><g class="recharts-layer recharts-bar-rectangle"><path stroke="#63A0D4" fill="#63A0D4" width="46.992468498867936" height="26" x="188" y="536.8685546875" radius="0" class="recharts-rectangle" d="M 188,536.8685546875 h 46.992468498867936 v 26 h -46.992468498867936 Z"></path></g><g class="recharts-layer recharts-bar-rectangle"><path stroke="#63A0D4" fill="#63A0D4" width="165.375" height="26" x="188" y="684.2455078125" radius="0" class="recharts-rectangle" d="M 188,684.2455078125 h 165.375 v 26 h -165.375 Z"></path></g><g class="recharts-layer recharts-bar-rectangle"><path stroke="#63A0D4" fill="#63A0D4" width="82.6875" height="26" x="188" y="831.6224609375" radius="0" class="recharts-rectangle" d="M 188,831.6224609375 h 82.6875 v 26 h -82.6875 Z"></path></g><g class="recharts-layer recharts-bar-rectangle"><path stroke="#63A0D4" fill="#63A0D4" width="330.75" height="26" x="188" y="978.9994140625" radius="0" class="recharts-rectangle" d="M 188,978.9994140625 h 330.75 v 26 h -330.75 Z"></path></g><g class="recharts-layer recharts-bar-rectangle"><path stroke="#63A0D4" fill="#63A0D4" width="8.094819204582251" height="26" x="188" y="1126.3763671875" radius="0" class="recharts-rectangle" d="M 188,1126.3763671875 h 8.094819204582251 v 26 h -8.094819204582251 Z"></path></g></g></g><g class="recharts-layer recharts-errorBars"><g class="recharts-layer recharts-errorBar" stroke-width="2px" stroke="#143049"><line x1="256.0426904290082" y1="111.7376953125" x2="256.0426904290082" y2="103.7376953125" stroke="#143049" stroke-width="2px"></line><line x1="247.04323976927915" y1="107.7376953125" x2="256.0426904290082" y2="107.7376953125" stroke="#143049" stroke-width="2px"></line><line x1="247.04323976927915" y1="111.7376953125" x2="247.04323976927915" y2="103.7376953125" stroke="#143049" stroke-width="2px"></line></g><g class="recharts-layer recharts-errorBar" stroke-width="2px" stroke="#143049"><line x1="684.125" y1="259.1146484375" x2="684.125" y2="251.1146484375" stroke="#143049" stroke-width="2px"></line><line x1="436.0625" y1="255.1146484375" x2="684.125" y2="255.1146484375" stroke="#143049" stroke-width="2px"></line><line x1="436.0625" y1="259.1146484375" x2="436.0625" y2="251.1146484375" stroke="#143049" stroke-width="2px"></line></g><g class="recharts-layer recharts-errorBar" stroke-width="2px" stroke="#143049"><line x1="518.75" y1="406.4916015625" x2="518.75" y2="398.4916015625" stroke="#143049" stroke-width="2px"></line><line x1="436.0625" y1="402.4916015625" x2="518.75" y2="402.4916015625" stroke="#143049" stroke-width="2px"></line><line x1="436.0625" y1="406.4916015625" x2="436.0625" y2="398.4916015625" stroke="#143049" stroke-width="2px"></line></g><g class="recharts-layer recharts-errorBar" stroke-width="2px" stroke="#143049"><line x1="242.3738352487713" y1="553.8685546875" x2="242.3738352487713" y2="545.8685546875" stroke="#143049" stroke-width="2px"></line><line x1="230.80610686175982" y1="549.8685546875" x2="242.3738352487713" y2="549.8685546875" stroke="#143049" stroke-width="2px"></line><line x1="230.80610686175982" y1="553.8685546875" x2="230.80610686175982" y2="545.8685546875" stroke="#143049" stroke-width="2px"></line></g><g class="recharts-layer recharts-errorBar" stroke-width="2px" stroke="#143049"><line x1="436.0625" y1="701.2455078125" x2="436.0625" y2="693.2455078125" stroke="#143049" stroke-width="2px"></line><line x1="353.375" y1="697.2455078125" x2="436.0625" y2="697.2455078125" stroke="#143049" stroke-width="2px"></line><line x1="353.375" y1="701.2455078125" x2="353.375" y2="693.2455078125" stroke="#143049" stroke-width="2px"></line></g><g class="recharts-layer recharts-errorBar" stroke-width="2px" stroke="#143049"><line x1="353.375" y1="848.6224609375" x2="353.375" y2="840.6224609375" stroke="#143049" stroke-width="2px"></line><line x1="270.6875" y1="844.6224609375" x2="353.375" y2="844.6224609375" stroke="#143049" stroke-width="2px"></line><line x1="270.6875" y1="848.6224609375" x2="270.6875" y2="840.6224609375" stroke="#143049" stroke-width="2px"></line></g><g class="recharts-layer recharts-errorBar" stroke-width="2px" stroke="#143049"><line x1="518.75" y1="995.9994140625" x2="518.75" y2="987.9994140625" stroke="#143049" stroke-width="2px"></line><line x1="518.75" y1="991.9994140625" x2="518.75" y2="991.9994140625" stroke="#143049" stroke-width="2px"></line><line x1="518.75" y1="995.9994140625" x2="518.75" y2="987.9994140625" stroke="#143049" stroke-width="2px"></line></g><g class="recharts-layer recharts-errorBar" stroke-width="2px" stroke="#143049"><line x1="196.87731075383357" y1="1143.3763671875" x2="196.87731075383357" y2="1135.3763671875" stroke="#143049" stroke-width="2px"></line><line x1="195.728347173659" y1="1139.3763671875" x2="196.87731075383357" y2="1139.3763671875" stroke="#143049" stroke-width="2px"></line><line x1="195.728347173659" y1="1143.3763671875" x2="195.728347173659" y2="1135.3763671875" stroke="#143049" stroke-width="2px"></line></g></g><g class="recharts-layer recharts-label-list"><g><text stroke="#337AB7" font-size="11" fill="#FFFFFF" x="258.5976307143429" y="100.7376953125" width="63.59763071434293" height="26" class="recharts-bar-label" fill-opacity="0.8">0.7691323442399753 us/op</text></g><g><text stroke="#337AB7" font-size="11" fill="#FFFFFF" x="525.75" y="248.1146484375" width="330.75" height="26" class="recharts-bar-label" fill-opacity="0.8">4 us/op</text></g><g><text stroke="#337AB7" font-size="11" fill="#FFFFFF" x="443.0625" y="395.4916015625" width="248.0625" height="26" class="recharts-bar-label" fill-opacity="0.8">3 us/op</text></g><g><text stroke="#337AB7" font-size="11" fill="#FFFFFF" x="241.99246849886794" y="542.8685546875" width="46.992468498867936" height="26" class="recharts-bar-label" fill-opacity="0.8">0.5683140559197937 us/op</text></g><g><text stroke="#337AB7" font-size="11" fill="#FFFFFF" x="360.375" y="690.2455078125" width="165.375" height="26" class="recharts-bar-label" fill-opacity="0.8">2 us/op</text></g><g><text stroke="#337AB7" font-size="11" fill="#FFFFFF" x="277.6875" y="837.6224609375" width="82.6875" height="26" class="recharts-bar-label" fill-opacity="0.8">1 us/op</text></g><g><text stroke="#337AB7" font-size="11" fill="#FFFFFF" x="525.75" y="984.9994140625" width="330.75" height="26" class="recharts-bar-label" fill-opacity="0.8">4 us/op</text></g><g><text stroke="#337AB7" font-size="11" fill="#FFFFFF" x="203.09481920458225" y="1132.3763671875" width="8.094819204582251" height="26" class="recharts-bar-label" fill-opacity="0.8">0.09789652855125941 us/op</text></g></g></g><g class="recharts-layer recharts-bar"><defs><clipPath id="clipPath-recharts-bar-21"><rect x="188" y="20" width="1323" height="1179.015625"></rect></clipPath></defs><g class="recharts-layer recharts-bar-rectangles" clip-path="url(#clipPath-recharts-bar-21)"><g class="recharts-layer"><g class="recharts-layer recharts-bar-rectangle"><path stroke="#7AB733" fill="#7AB733" width="77.81684892005853" height="26" x="188" y="124.7376953125" radius="0" class="recharts-rectangle" d="M 188,124.7376953125 h 77.81684892005853 v 26 h -77.81684892005853 Z"></path></g><g class="recharts-layer recharts-bar-rectangle"><path stroke="#7AB733" fill="#7AB733" width="82.6875" height="26" x="188" y="272.1146484375" radius="0" class="recharts-rectangle" d="M 188,272.1146484375 h 82.6875 v 26 h -82.6875 Z"></path></g><g class="recharts-layer recharts-bar-rectangle"><path stroke="#7AB733" fill="#7AB733" width="248.0625" height="26" x="188" y="419.4916015625" radius="0" class="recharts-rectangle" d="M 188,419.4916015625 h 248.0625 v 26 h -248.0625 Z"></path></g><g class="recharts-layer recharts-bar-rectangle"><path stroke="#7AB733" fill="#7AB733" width="41.657255446724974" height="26" x="188" y="566.8685546875" radius="0" class="recharts-rectangle" d="M 188,566.8685546875 h 41.657255446724974 v 26 h -41.657255446724974 Z"></path></g><g class="recharts-layer recharts-bar-rectangle"><path stroke="#7AB733" fill="#7AB733" width="80.07863193904336" height="26" x="188" y="714.2455078125" radius="0" class="recharts-rectangle" d="M 188,714.2455078125 h 80.07863193904336 v 26 h -80.07863193904336 Z"></path></g><g class="recharts-layer recharts-bar-rectangle"><path stroke="#7AB733" fill="#7AB733" width="82.6875" height="26" x="188" y="861.6224609375" radius="0" class="recharts-rectangle" d="M 188,861.6224609375 h 82.6875 v 26 h -82.6875 Z"></path></g><g class="recharts-layer recharts-bar-rectangle"><path stroke="#7AB733" fill="#7AB733" width="413.4375" height="26" x="188" y="1008.9994140625" radius="0" class="recharts-rectangle" d="M 188,1008.9994140625 h 413.4375 v 26 h -413.4375 Z"></path></g><g class="recharts-layer recharts-bar-rectangle"><path stroke="#7AB733" fill="#7AB733" width="413.4375" height="26" x="188" y="1156.3763671875" radius="0" class="recharts-rectangle" d="M 188,1156.3763671875 h 413.4375 v 26 h -413.4375 Z"></path></g></g></g><g class="recharts-layer recharts-errorBars"><g class="recharts-layer recharts-errorBar" stroke-width="2px" stroke="#143049"><line x1="270.11091009311883" y1="141.7376953125" x2="270.11091009311883" y2="133.7376953125" stroke="#143049" stroke-width="2px"></line><line x1="259.61096135396116" y1="137.7376953125" x2="270.11091009311883" y2="137.7376953125" stroke="#143049" stroke-width="2px"></line><line x1="259.61096135396116" y1="141.7376953125" x2="259.61096135396116" y2="133.7376953125" stroke="#143049" stroke-width="2px"></line></g><g class="recharts-layer recharts-errorBar" stroke-width="2px" stroke="#143049"><line x1="353.375" y1="289.1146484375" x2="353.375" y2="281.1146484375" stroke="#143049" stroke-width="2px"></line><line x1="270.6875" y1="285.1146484375" x2="353.375" y2="285.1146484375" stroke="#143049" stroke-width="2px"></line><line x1="270.6875" y1="289.1146484375" x2="270.6875" y2="281.1146484375" stroke="#143049" stroke-width="2px"></line></g><g class="recharts-layer recharts-errorBar" stroke-width="2px" stroke="#143049"><line x1="518.75" y1="436.4916015625" x2="518.75" y2="428.4916015625" stroke="#143049" stroke-width="2px"></line><line x1="353.375" y1="432.4916015625" x2="518.75" y2="432.4916015625" stroke="#143049" stroke-width="2px"></line><line x1="353.375" y1="436.4916015625" x2="353.375" y2="428.4916015625" stroke="#143049" stroke-width="2px"></line></g><g class="recharts-layer recharts-errorBar" stroke-width="2px" stroke="#143049"><line x1="234.47707406185154" y1="583.8685546875" x2="234.47707406185154" y2="575.8685546875" stroke="#143049" stroke-width="2px"></line><line x1="225.64399847736675" y1="579.8685546875" x2="234.47707406185154" y2="579.8685546875" stroke="#143049" stroke-width="2px"></line><line x1="225.64399847736675" y1="583.8685546875" x2="225.64399847736675" y2="575.8685546875" stroke="#143049" stroke-width="2px"></line></g><g class="recharts-layer recharts-errorBar" stroke-width="2px" stroke="#143049"><line x1="270.6875" y1="731.2455078125" x2="270.6875" y2="723.2455078125" stroke="#143049" stroke-width="2px"></line><line x1="258.3468247515667" y1="727.2455078125" x2="270.6875" y2="727.2455078125" stroke="#143049" stroke-width="2px"></line><line x1="258.3468247515667" y1="731.2455078125" x2="258.3468247515667" y2="723.2455078125" stroke="#143049" stroke-width="2px"></line></g><g class="recharts-layer recharts-errorBar" stroke-width="2px" stroke="#143049"><line x1="270.6875" y1="878.6224609375" x2="270.6875" y2="870.6224609375" stroke="#143049" stroke-width="2px"></line><line x1="270.6875" y1="874.6224609375" x2="270.6875" y2="874.6224609375" stroke="#143049" stroke-width="2px"></line><line x1="270.6875" y1="878.6224609375" x2="270.6875" y2="870.6224609375" stroke="#143049" stroke-width="2px"></line></g><g class="recharts-layer recharts-errorBar" stroke-width="2px" stroke="#143049"><line x1="684.125" y1="1025.9994140625" x2="684.125" y2="1017.9994140625" stroke="#143049" stroke-width="2px"></line><line x1="518.75" y1="1021.9994140625" x2="684.125" y2="1021.9994140625" stroke="#143049" stroke-width="2px"></line><line x1="518.75" y1="1025.9994140625" x2="518.75" y2="1017.9994140625" stroke="#143049" stroke-width="2px"></line></g><g class="recharts-layer recharts-errorBar" stroke-width="2px" stroke="#143049"><line x1="601.4375" y1="1173.3763671875" x2="601.4375" y2="1165.3763671875" stroke="#143049" stroke-width="2px"></line><line x1="518.75" y1="1169.3763671875" x2="601.4375" y2="1169.3763671875" stroke="#143049" stroke-width="2px"></line><line x1="518.75" y1="1173.3763671875" x2="518.75" y2="1165.3763671875" stroke="#143049" stroke-width="2px"></line></g></g><g class="recharts-layer recharts-label-list"><g><text stroke="#337AB7" font-size="11" fill="#FFFFFF" x="272.81684892005853" y="130.7376953125" width="77.81684892005853" height="26" class="recharts-bar-label" fill-opacity="0.8">0.9410956785494605 us/op</text></g><g><text stroke="#337AB7" font-size="11" fill="#FFFFFF" x="277.6875" y="278.1146484375" width="82.6875" height="26" class="recharts-bar-label" fill-opacity="0.8">1 us/op</text></g><g><text stroke="#337AB7" font-size="11" fill="#FFFFFF" x="443.0625" y="425.4916015625" width="248.0625" height="26" class="recharts-bar-label" fill-opacity="0.8">3 us/op</text></g><g><text stroke="#337AB7" font-size="11" fill="#FFFFFF" x="236.65725544672497" y="572.8685546875" width="41.657255446724974" height="26" class="recharts-bar-label" fill-opacity="0.8">0.5037914490911564 us/op</text></g><g><text stroke="#337AB7" font-size="11" fill="#FFFFFF" x="275.07863193904336" y="720.2455078125" width="80.07863193904336" height="26" class="recharts-bar-label" fill-opacity="0.8">0.9684490635107285 us/op</text></g><g><text stroke="#337AB7" font-size="11" fill="#FFFFFF" x="277.6875" y="867.6224609375" width="82.6875" height="26" class="recharts-bar-label" fill-opacity="0.8">1 us/op</text></g><g><text stroke="#337AB7" font-size="11" fill="#FFFFFF" x="608.4375" y="1014.9994140625" width="413.4375" height="26" class="recharts-bar-label" fill-opacity="0.8">5 us/op</text></g><g><text stroke="#337AB7" font-size="11" fill="#FFFFFF" x="608.4375" y="1162.3763671875" width="413.4375" height="26" class="recharts-bar-label" fill-opacity="0.8">5 us/op</text></g></g></g></svg>